%TF.GenerationSoftware,KiCad,Pcbnew,9.0.6*%
%TF.CreationDate,2026-01-21T19:17:09+09:00*%
%TF.ProjectId,mictorHSMC,6d696374-6f72-4485-934d-432e6b696361,rev?*%
%TF.SameCoordinates,Original*%
%TF.FileFunction,Copper,L3,Inr*%
%TF.FilePolarity,Positive*%
%FSLAX46Y46*%
G04 Gerber Fmt 4.6, Leading zero omitted, Abs format (unit mm)*
G04 Created by KiCad (PCBNEW 9.0.6) date 2026-01-21 19:17:09*
%MOMM*%
%LPD*%
G01*
G04 APERTURE LIST*
%TA.AperFunction,ComponentPad*%
%ADD10C,1.318000*%
%TD*%
%TA.AperFunction,ViaPad*%
%ADD11C,0.600000*%
%TD*%
%TA.AperFunction,Conductor*%
%ADD12C,0.200000*%
%TD*%
G04 APERTURE END LIST*
D10*
%TO.N,GND*%
%TO.C,J1*%
X165160000Y-110000000D03*
X162620000Y-110000000D03*
X160080000Y-110000000D03*
X157540000Y-110000000D03*
X155000000Y-110000000D03*
%TD*%
D11*
%TO.N,HSM_D29*%
X154928200Y-108659400D03*
%TO.N,HSM_D6*%
X163889700Y-110307000D03*
X163733900Y-85037500D03*
%TO.N,HSM_D1*%
X165110100Y-104330800D03*
%TO.N,HSM_D9*%
X162821800Y-102830400D03*
%TO.N,HSM_D2*%
X164620200Y-115506500D03*
X167053500Y-86109400D03*
%TO.N,HSM_D18*%
X158608800Y-85491100D03*
X159395800Y-114861900D03*
%TO.N,HSM_D30*%
X155184300Y-114776100D03*
X154441900Y-88564100D03*
%TO.N,HSM_D25*%
X157207400Y-103392800D03*
%TO.N,HSM_D28*%
X155299000Y-88657500D03*
X154915900Y-111960200D03*
%TO.N,HSM_D33*%
X153793800Y-102123100D03*
%TO.N,HSM_D24*%
X156695000Y-84930900D03*
X157000800Y-115756700D03*
%TO.N,HSM_D31*%
X154984600Y-103435700D03*
%TO.N,HSM_D19*%
X159830200Y-108161200D03*
%TO.N,HSM_D10*%
X161149600Y-89144700D03*
X161208400Y-108315900D03*
X161508600Y-111684700D03*
%TO.N,HSM_D11*%
X162627500Y-108623700D03*
%TO.N,HSM_D15*%
X160717300Y-99167600D03*
%TO.N,HSM_D21*%
X159492200Y-101509600D03*
%TO.N,HSM_D5*%
X164205100Y-107970700D03*
%TO.N,HSM_D34*%
X153780200Y-115563100D03*
X153345900Y-88940300D03*
%TO.N,HSM_D14*%
X160053800Y-88452000D03*
X160933800Y-112359700D03*
%TO.N,HSM_D3*%
X164645300Y-103435700D03*
%TO.N,HSM_D13*%
X161300600Y-103435600D03*
%TO.N,HSM_D35*%
X152107300Y-106416200D03*
%TO.N,HSM_D26*%
X156473800Y-88658700D03*
X156236400Y-114915200D03*
%TO.N,HSM_CLKIN0*%
X168660200Y-105808100D03*
%TO.N,HSM_D32*%
X151325300Y-115357700D03*
X153663000Y-85123700D03*
%TO.N,HSM_D22*%
X160589700Y-115516000D03*
X159001500Y-89103200D03*
%TO.N,HSM_D7*%
X163111700Y-104015300D03*
%TO.N,HSM_CLKOUT0*%
X171819900Y-85123700D03*
X168892100Y-112378500D03*
%TO.N,HSM_D0*%
X166451700Y-112054400D03*
X166332300Y-85123700D03*
%TO.N,HSM_D20*%
X157716200Y-108712900D03*
X158599800Y-88234600D03*
%TO.N,HSM_D17*%
X159969500Y-104614500D03*
%TO.N,HSM_D27*%
X156889800Y-104459200D03*
%TO.N,HSM_D23*%
X157327600Y-101601600D03*
%TO.N,HSM_D4*%
X164185100Y-88683200D03*
X163872100Y-112157800D03*
%TO.N,HSM_D12*%
X161547400Y-114692900D03*
X160825300Y-84783500D03*
%TO.N,HSM_D16*%
X159238700Y-111655700D03*
X159909800Y-85672700D03*
%TO.N,HSM_D8*%
X162223200Y-85064800D03*
X163130000Y-115552700D03*
%TD*%
D12*
%TO.N,GND*%
X162960300Y-109659700D02*
X162620000Y-110000000D01*
X164819700Y-109659700D02*
X162960300Y-109659700D01*
X165160000Y-110000000D02*
X164819700Y-109659700D01*
X156580900Y-110000000D02*
X160080000Y-110000000D01*
X157540000Y-110000000D02*
X156580900Y-110000000D01*
X156580900Y-110000000D02*
X155000000Y-110000000D01*
%TD*%
%TA.AperFunction,Conductor*%
%TO.N,GND*%
G36*
X161058529Y-110624976D02*
G01*
X161058530Y-110624976D01*
X161071265Y-110607447D01*
X161154086Y-110444904D01*
X161210461Y-110271400D01*
X161227527Y-110163657D01*
X161257456Y-110100522D01*
X161316768Y-110063591D01*
X161386630Y-110064589D01*
X161444863Y-110103199D01*
X161472473Y-110163657D01*
X161489538Y-110271400D01*
X161545913Y-110444904D01*
X161628736Y-110607451D01*
X161686760Y-110687315D01*
X161710240Y-110753121D01*
X161694414Y-110821175D01*
X161644309Y-110869870D01*
X161586442Y-110884200D01*
X161429755Y-110884200D01*
X161275110Y-110914961D01*
X161275098Y-110914964D01*
X161129427Y-110975302D01*
X161129414Y-110975309D01*
X160998311Y-111062910D01*
X160998307Y-111062913D01*
X160886813Y-111174407D01*
X160886810Y-111174411D01*
X160799209Y-111305514D01*
X160799202Y-111305527D01*
X160738864Y-111451198D01*
X160738861Y-111451207D01*
X160725175Y-111520011D01*
X160692789Y-111581922D01*
X160651011Y-111610379D01*
X160554624Y-111650304D01*
X160554614Y-111650309D01*
X160423511Y-111737910D01*
X160423507Y-111737913D01*
X160312013Y-111849407D01*
X160237363Y-111961128D01*
X160183750Y-112005932D01*
X160114425Y-112014639D01*
X160051398Y-111984484D01*
X160014679Y-111925041D01*
X160012644Y-111868046D01*
X160030432Y-111778621D01*
X160039200Y-111734544D01*
X160039200Y-111576855D01*
X160039199Y-111576853D01*
X160014205Y-111451203D01*
X160008437Y-111422203D01*
X160003344Y-111409907D01*
X159970433Y-111330452D01*
X159962964Y-111260983D01*
X159994239Y-111198504D01*
X160054328Y-111162852D01*
X160084994Y-111159000D01*
X160171220Y-111159000D01*
X160351400Y-111130461D01*
X160524904Y-111074086D01*
X160687447Y-110991265D01*
X160704976Y-110978530D01*
X160704976Y-110978529D01*
X160131446Y-110405000D01*
X160133319Y-110405000D01*
X160236324Y-110377400D01*
X160328676Y-110324081D01*
X160404081Y-110248676D01*
X160457400Y-110156324D01*
X160485000Y-110053319D01*
X160485000Y-110051446D01*
X161058529Y-110624976D01*
G37*
%TD.AperFunction*%
%TA.AperFunction,Conductor*%
G36*
X161851293Y-108922633D02*
G01*
X161902855Y-108969784D01*
X161911345Y-108986557D01*
X161918104Y-109002875D01*
X161918109Y-109002885D01*
X162005710Y-109133988D01*
X162005713Y-109133992D01*
X162117210Y-109245489D01*
X162224022Y-109316858D01*
X162248321Y-109333094D01*
X162325107Y-109364899D01*
X162365331Y-109391777D01*
X162568554Y-109595000D01*
X162566681Y-109595000D01*
X162463676Y-109622600D01*
X162371324Y-109675919D01*
X162295919Y-109751324D01*
X162242600Y-109843676D01*
X162215000Y-109946681D01*
X162215000Y-109948553D01*
X161641469Y-109375022D01*
X161641468Y-109375022D01*
X161628732Y-109392554D01*
X161545913Y-109555095D01*
X161489537Y-109728599D01*
X161472473Y-109836342D01*
X161442544Y-109899477D01*
X161383232Y-109936408D01*
X161313370Y-109935410D01*
X161255137Y-109896800D01*
X161227527Y-109836342D01*
X161210462Y-109728599D01*
X161154086Y-109555095D01*
X161071263Y-109392548D01*
X161012946Y-109312280D01*
X160989466Y-109246474D01*
X161005292Y-109178420D01*
X161055398Y-109129725D01*
X161123876Y-109115850D01*
X161125420Y-109115992D01*
X161129554Y-109116399D01*
X161129558Y-109116400D01*
X161129562Y-109116400D01*
X161287244Y-109116400D01*
X161287245Y-109116399D01*
X161441897Y-109085637D01*
X161555523Y-109038572D01*
X161587572Y-109025297D01*
X161587572Y-109025296D01*
X161587579Y-109025294D01*
X161612366Y-109008732D01*
X161723754Y-108934305D01*
X161724513Y-108935441D01*
X161782425Y-108910844D01*
X161851293Y-108922633D01*
G37*
%TD.AperFunction*%
%TA.AperFunction,Conductor*%
G36*
X158315397Y-109362462D02*
G01*
X158362087Y-109414440D01*
X158373264Y-109483410D01*
X158345379Y-109547474D01*
X158337912Y-109555639D01*
X157945000Y-109948551D01*
X157945000Y-109946681D01*
X157917400Y-109843676D01*
X157864081Y-109751324D01*
X157788676Y-109675919D01*
X157696324Y-109622600D01*
X157593319Y-109595000D01*
X157591445Y-109595000D01*
X157636726Y-109549719D01*
X157698049Y-109516234D01*
X157724408Y-109513400D01*
X157795044Y-109513400D01*
X157795045Y-109513399D01*
X157949697Y-109482637D01*
X158062366Y-109435967D01*
X158095372Y-109422297D01*
X158095372Y-109422296D01*
X158095379Y-109422294D01*
X158181342Y-109364854D01*
X158248016Y-109343978D01*
X158315397Y-109362462D01*
G37*
%TD.AperFunction*%
%TA.AperFunction,Conductor*%
G36*
X188943039Y-83019685D02*
G01*
X188988794Y-83072489D01*
X189000000Y-83124000D01*
X189000000Y-116876000D01*
X188980315Y-116943039D01*
X188927511Y-116988794D01*
X188876000Y-117000000D01*
X128124000Y-117000000D01*
X128056961Y-116980315D01*
X128011206Y-116927511D01*
X128000000Y-116876000D01*
X128000000Y-115278853D01*
X150524800Y-115278853D01*
X150524800Y-115436546D01*
X150555561Y-115591189D01*
X150555564Y-115591201D01*
X150615902Y-115736872D01*
X150615909Y-115736885D01*
X150703510Y-115867988D01*
X150703513Y-115867992D01*
X150815007Y-115979486D01*
X150815011Y-115979489D01*
X150946114Y-116067090D01*
X150946127Y-116067097D01*
X151091798Y-116127435D01*
X151091803Y-116127437D01*
X151246453Y-116158199D01*
X151246456Y-116158200D01*
X151246458Y-116158200D01*
X151404144Y-116158200D01*
X151404145Y-116158199D01*
X151558797Y-116127437D01*
X151689274Y-116073392D01*
X151704472Y-116067097D01*
X151704472Y-116067096D01*
X151704479Y-116067094D01*
X151835589Y-115979489D01*
X151947089Y-115867989D01*
X152034694Y-115736879D01*
X152043412Y-115715833D01*
X152048367Y-115703866D01*
X152095037Y-115591197D01*
X152114490Y-115493400D01*
X152116310Y-115484253D01*
X152979700Y-115484253D01*
X152979700Y-115641946D01*
X153010461Y-115796589D01*
X153010464Y-115796601D01*
X153070802Y-115942272D01*
X153070809Y-115942285D01*
X153158410Y-116073388D01*
X153158413Y-116073392D01*
X153269907Y-116184886D01*
X153269911Y-116184889D01*
X153401014Y-116272490D01*
X153401027Y-116272497D01*
X153521590Y-116322435D01*
X153546703Y-116332837D01*
X153701353Y-116363599D01*
X153701356Y-116363600D01*
X153701358Y-116363600D01*
X153859044Y-116363600D01*
X153859045Y-116363599D01*
X154013697Y-116332837D01*
X154150343Y-116276237D01*
X154159372Y-116272497D01*
X154159372Y-116272496D01*
X154159379Y-116272494D01*
X154290489Y-116184889D01*
X154401989Y-116073389D01*
X154489594Y-115942279D01*
X154549937Y-115796597D01*
X154580700Y-115641942D01*
X154580700Y-115567528D01*
X154600385Y-115500489D01*
X154653189Y-115454734D01*
X154722347Y-115444790D01*
X154773590Y-115464426D01*
X154805121Y-115485494D01*
X154805123Y-115485494D01*
X154805127Y-115485497D01*
X154896147Y-115523198D01*
X154950803Y-115545837D01*
X155105453Y-115576599D01*
X155105456Y-115576600D01*
X155105458Y-115576600D01*
X155263144Y-115576600D01*
X155263145Y-115576599D01*
X155417797Y-115545837D01*
X155563479Y-115485494D01*
X155563482Y-115485491D01*
X155565517Y-115484649D01*
X155634986Y-115477180D01*
X155697466Y-115508455D01*
X155700624Y-115511502D01*
X155720419Y-115531297D01*
X155726112Y-115536990D01*
X155857214Y-115624590D01*
X155857227Y-115624597D01*
X156002898Y-115684935D01*
X156002903Y-115684937D01*
X156050704Y-115694445D01*
X156100491Y-115704349D01*
X156162402Y-115736734D01*
X156196976Y-115797449D01*
X156200300Y-115825966D01*
X156200300Y-115835546D01*
X156231061Y-115990189D01*
X156231064Y-115990201D01*
X156291402Y-116135872D01*
X156291409Y-116135885D01*
X156379010Y-116266988D01*
X156379013Y-116266992D01*
X156490507Y-116378486D01*
X156490511Y-116378489D01*
X156621614Y-116466090D01*
X156621627Y-116466097D01*
X156767298Y-116526435D01*
X156767303Y-116526437D01*
X156921953Y-116557199D01*
X156921956Y-116557200D01*
X156921958Y-116557200D01*
X157079644Y-116557200D01*
X157079645Y-116557199D01*
X157234297Y-116526437D01*
X157379979Y-116466094D01*
X157511089Y-116378489D01*
X157622589Y-116266989D01*
X157710194Y-116135879D01*
X157770537Y-115990197D01*
X157801300Y-115835542D01*
X157801300Y-115677858D01*
X157801300Y-115677855D01*
X157801299Y-115677853D01*
X157792106Y-115631636D01*
X157770537Y-115523203D01*
X157750096Y-115473853D01*
X157710197Y-115377527D01*
X157710190Y-115377514D01*
X157622589Y-115246411D01*
X157622586Y-115246407D01*
X157511092Y-115134913D01*
X157511088Y-115134910D01*
X157379985Y-115047309D01*
X157379972Y-115047302D01*
X157234301Y-114986964D01*
X157234291Y-114986961D01*
X157136708Y-114967550D01*
X157115734Y-114956578D01*
X157093073Y-114949738D01*
X157085344Y-114940681D01*
X157074797Y-114935164D01*
X157063085Y-114914597D01*
X157047719Y-114896590D01*
X157044650Y-114882223D01*
X157040223Y-114874448D01*
X157038032Y-114862651D01*
X157036900Y-114854331D01*
X157036900Y-114836358D01*
X157029159Y-114797442D01*
X157029158Y-114797434D01*
X157026297Y-114783053D01*
X158595300Y-114783053D01*
X158595300Y-114940746D01*
X158626061Y-115095389D01*
X158626064Y-115095401D01*
X158686402Y-115241072D01*
X158686409Y-115241085D01*
X158774010Y-115372188D01*
X158774013Y-115372192D01*
X158885507Y-115483686D01*
X158885511Y-115483689D01*
X159016614Y-115571290D01*
X159016627Y-115571297D01*
X159162083Y-115631546D01*
X159162303Y-115631637D01*
X159316953Y-115662399D01*
X159316956Y-115662400D01*
X159316958Y-115662400D01*
X159474644Y-115662400D01*
X159474645Y-115662399D01*
X159629297Y-115631637D01*
X159644195Y-115625465D01*
X159713663Y-115617996D01*
X159776143Y-115649270D01*
X159811797Y-115709358D01*
X159813266Y-115715833D01*
X159819961Y-115749492D01*
X159819964Y-115749501D01*
X159880302Y-115895172D01*
X159880309Y-115895185D01*
X159967910Y-116026288D01*
X159967913Y-116026292D01*
X160079407Y-116137786D01*
X160079411Y-116137789D01*
X160210514Y-116225390D01*
X160210527Y-116225397D01*
X160333270Y-116276238D01*
X160356203Y-116285737D01*
X160463094Y-116306999D01*
X160510853Y-116316499D01*
X160510856Y-116316500D01*
X160510858Y-116316500D01*
X160668544Y-116316500D01*
X160668545Y-116316499D01*
X160823197Y-116285737D01*
X160968879Y-116225394D01*
X161099989Y-116137789D01*
X161211489Y-116026289D01*
X161299094Y-115895179D01*
X161359437Y-115749497D01*
X161372279Y-115684937D01*
X161390526Y-115593208D01*
X161422911Y-115531297D01*
X161483627Y-115496723D01*
X161512143Y-115493400D01*
X161626244Y-115493400D01*
X161626245Y-115493399D01*
X161780897Y-115462637D01*
X161926579Y-115402294D01*
X162057689Y-115314689D01*
X162147468Y-115224909D01*
X162208789Y-115191426D01*
X162278481Y-115196410D01*
X162334415Y-115238281D01*
X162358832Y-115303745D01*
X162356765Y-115336783D01*
X162329500Y-115473853D01*
X162329500Y-115631546D01*
X162360261Y-115786189D01*
X162360264Y-115786201D01*
X162420602Y-115931872D01*
X162420609Y-115931885D01*
X162508210Y-116062988D01*
X162508213Y-116062992D01*
X162619707Y-116174486D01*
X162619711Y-116174489D01*
X162750814Y-116262090D01*
X162750827Y-116262097D01*
X162896498Y-116322435D01*
X162896503Y-116322437D01*
X163051153Y-116353199D01*
X163051156Y-116353200D01*
X163051158Y-116353200D01*
X163208844Y-116353200D01*
X163208845Y-116353199D01*
X163363497Y-116322437D01*
X163509179Y-116262094D01*
X163640289Y-116174489D01*
X163751789Y-116062989D01*
X163764196Y-116044419D01*
X163787433Y-116009645D01*
X163841045Y-115964839D01*
X163910370Y-115956132D01*
X163973397Y-115986286D01*
X163993639Y-116009647D01*
X163998411Y-116016790D01*
X164109907Y-116128286D01*
X164109911Y-116128289D01*
X164241014Y-116215890D01*
X164241027Y-116215897D01*
X164377674Y-116272497D01*
X164386703Y-116276237D01*
X164541353Y-116306999D01*
X164541356Y-116307000D01*
X164541358Y-116307000D01*
X164699044Y-116307000D01*
X164699045Y-116306999D01*
X164853697Y-116276237D01*
X164976444Y-116225394D01*
X164999372Y-116215897D01*
X164999372Y-116215896D01*
X164999379Y-116215894D01*
X165130489Y-116128289D01*
X165241989Y-116016789D01*
X165329594Y-115885679D01*
X165389937Y-115739997D01*
X165420700Y-115585342D01*
X165420700Y-115427658D01*
X165420700Y-115427655D01*
X165420699Y-115427653D01*
X165415654Y-115402290D01*
X165389937Y-115273003D01*
X165370017Y-115224911D01*
X165329597Y-115127327D01*
X165329590Y-115127314D01*
X165241989Y-114996211D01*
X165241986Y-114996207D01*
X165130492Y-114884713D01*
X165130488Y-114884710D01*
X164999385Y-114797109D01*
X164999372Y-114797102D01*
X164853701Y-114736764D01*
X164853689Y-114736761D01*
X164699045Y-114706000D01*
X164699042Y-114706000D01*
X164541358Y-114706000D01*
X164541355Y-114706000D01*
X164386710Y-114736761D01*
X164386698Y-114736764D01*
X164241027Y-114797102D01*
X164241014Y-114797109D01*
X164109911Y-114884710D01*
X164109907Y-114884713D01*
X163998413Y-114996207D01*
X163998408Y-114996213D01*
X163962765Y-115049556D01*
X163909152Y-115094361D01*
X163839827Y-115103067D01*
X163776800Y-115072911D01*
X163756559Y-115049550D01*
X163751789Y-115042411D01*
X163751786Y-115042407D01*
X163640292Y-114930913D01*
X163640288Y-114930910D01*
X163509185Y-114843309D01*
X163509172Y-114843302D01*
X163363501Y-114782964D01*
X163363489Y-114782961D01*
X163208845Y-114752200D01*
X163208842Y-114752200D01*
X163051158Y-114752200D01*
X163051155Y-114752200D01*
X162896510Y-114782961D01*
X162896498Y-114782964D01*
X162750827Y-114843302D01*
X162750814Y-114843309D01*
X162619711Y-114930910D01*
X162529932Y-115020689D01*
X162468608Y-115054173D01*
X162398917Y-115049189D01*
X162342983Y-115007317D01*
X162318567Y-114941852D01*
X162320634Y-114908815D01*
X162325429Y-114884713D01*
X162343599Y-114793364D01*
X162347900Y-114771744D01*
X162347900Y-114614055D01*
X162347899Y-114614053D01*
X162317137Y-114459403D01*
X162291259Y-114396927D01*
X162256797Y-114313727D01*
X162256790Y-114313714D01*
X162169189Y-114182611D01*
X162169186Y-114182607D01*
X162057692Y-114071113D01*
X162057688Y-114071110D01*
X161926585Y-113983509D01*
X161926572Y-113983502D01*
X161780901Y-113923164D01*
X161780889Y-113923161D01*
X161626245Y-113892400D01*
X161626242Y-113892400D01*
X161468558Y-113892400D01*
X161468555Y-113892400D01*
X161313910Y-113923161D01*
X161313898Y-113923164D01*
X161168227Y-113983502D01*
X161168214Y-113983509D01*
X161037111Y-114071110D01*
X161037107Y-114071113D01*
X160925613Y-114182607D01*
X160925610Y-114182611D01*
X160838009Y-114313714D01*
X160838002Y-114313727D01*
X160777664Y-114459398D01*
X160777661Y-114459408D01*
X160746574Y-114615692D01*
X160714189Y-114677603D01*
X160653473Y-114712177D01*
X160624957Y-114715500D01*
X160510855Y-114715500D01*
X160356210Y-114746261D01*
X160356199Y-114746264D01*
X160341298Y-114752436D01*
X160271828Y-114759902D01*
X160209350Y-114728624D01*
X160173701Y-114668534D01*
X160172233Y-114662064D01*
X160165538Y-114628410D01*
X160165537Y-114628403D01*
X160148787Y-114587964D01*
X160105197Y-114482727D01*
X160105190Y-114482714D01*
X160017589Y-114351611D01*
X160017586Y-114351607D01*
X159906092Y-114240113D01*
X159906088Y-114240110D01*
X159774985Y-114152509D01*
X159774972Y-114152502D01*
X159629301Y-114092164D01*
X159629289Y-114092161D01*
X159474645Y-114061400D01*
X159474642Y-114061400D01*
X159316958Y-114061400D01*
X159316955Y-114061400D01*
X159162310Y-114092161D01*
X159162298Y-114092164D01*
X159016627Y-114152502D01*
X159016614Y-114152509D01*
X158885511Y-114240110D01*
X158885507Y-114240113D01*
X158774013Y-114351607D01*
X158774010Y-114351611D01*
X158686409Y-114482714D01*
X158686402Y-114482727D01*
X158626064Y-114628398D01*
X158626061Y-114628410D01*
X158595300Y-114783053D01*
X157026297Y-114783053D01*
X157006138Y-114681708D01*
X157006137Y-114681707D01*
X157006137Y-114681703D01*
X156992302Y-114648302D01*
X156945797Y-114536027D01*
X156945790Y-114536014D01*
X156858189Y-114404911D01*
X156858186Y-114404907D01*
X156746692Y-114293413D01*
X156746688Y-114293410D01*
X156615585Y-114205809D01*
X156615572Y-114205802D01*
X156469901Y-114145464D01*
X156469889Y-114145461D01*
X156315245Y-114114700D01*
X156315242Y-114114700D01*
X156157558Y-114114700D01*
X156157555Y-114114700D01*
X156002910Y-114145461D01*
X156002898Y-114145464D01*
X155855182Y-114206650D01*
X155785713Y-114214119D01*
X155723234Y-114182844D01*
X155720049Y-114179770D01*
X155694592Y-114154313D01*
X155694588Y-114154310D01*
X155563485Y-114066709D01*
X155563472Y-114066702D01*
X155417801Y-114006364D01*
X155417789Y-114006361D01*
X155263145Y-113975600D01*
X155263142Y-113975600D01*
X155105458Y-113975600D01*
X155105455Y-113975600D01*
X154950810Y-114006361D01*
X154950798Y-114006364D01*
X154805127Y-114066702D01*
X154805114Y-114066709D01*
X154674011Y-114154310D01*
X154674007Y-114154313D01*
X154562513Y-114265807D01*
X154562510Y-114265811D01*
X154474909Y-114396914D01*
X154474902Y-114396927D01*
X154414564Y-114542598D01*
X154414561Y-114542610D01*
X154383800Y-114697253D01*
X154383800Y-114771671D01*
X154364115Y-114838710D01*
X154311311Y-114884465D01*
X154242153Y-114894409D01*
X154190909Y-114874773D01*
X154159385Y-114853709D01*
X154159372Y-114853702D01*
X154013701Y-114793364D01*
X154013689Y-114793361D01*
X153859045Y-114762600D01*
X153859042Y-114762600D01*
X153701358Y-114762600D01*
X153701355Y-114762600D01*
X153546710Y-114793361D01*
X153546698Y-114793364D01*
X153401027Y-114853702D01*
X153401014Y-114853709D01*
X153269911Y-114941310D01*
X153269907Y-114941313D01*
X153158413Y-115052807D01*
X153158410Y-115052811D01*
X153070809Y-115183914D01*
X153070802Y-115183927D01*
X153010464Y-115329598D01*
X153010461Y-115329610D01*
X152979700Y-115484253D01*
X152116310Y-115484253D01*
X152122333Y-115453975D01*
X152125799Y-115436546D01*
X152125800Y-115436544D01*
X152125800Y-115278855D01*
X152125799Y-115278853D01*
X152109400Y-115196410D01*
X152095037Y-115124203D01*
X152082676Y-115094361D01*
X152034697Y-114978527D01*
X152034690Y-114978514D01*
X151947089Y-114847411D01*
X151947086Y-114847407D01*
X151835592Y-114735913D01*
X151835588Y-114735910D01*
X151704485Y-114648309D01*
X151704472Y-114648302D01*
X151558801Y-114587964D01*
X151558789Y-114587961D01*
X151404145Y-114557200D01*
X151404142Y-114557200D01*
X151246458Y-114557200D01*
X151246455Y-114557200D01*
X151091810Y-114587961D01*
X151091798Y-114587964D01*
X150946127Y-114648302D01*
X150946114Y-114648309D01*
X150815011Y-114735910D01*
X150815007Y-114735913D01*
X150703513Y-114847407D01*
X150703510Y-114847411D01*
X150615909Y-114978514D01*
X150615902Y-114978527D01*
X150555564Y-115124198D01*
X150555561Y-115124210D01*
X150524800Y-115278853D01*
X128000000Y-115278853D01*
X128000000Y-109908779D01*
X153841000Y-109908779D01*
X153841000Y-110091220D01*
X153869538Y-110271400D01*
X153925913Y-110444906D01*
X154008734Y-110607447D01*
X154021468Y-110624976D01*
X154021469Y-110624976D01*
X154595000Y-110051445D01*
X154595000Y-110053319D01*
X154622600Y-110156324D01*
X154675919Y-110248676D01*
X154751324Y-110324081D01*
X154843676Y-110377400D01*
X154946681Y-110405000D01*
X154948553Y-110405000D01*
X154375022Y-110978529D01*
X154375022Y-110978530D01*
X154392551Y-110991265D01*
X154392553Y-110991266D01*
X154506219Y-111049182D01*
X154557015Y-111097156D01*
X154573810Y-111164977D01*
X154551273Y-111231112D01*
X154518815Y-111262769D01*
X154405611Y-111338410D01*
X154405607Y-111338413D01*
X154294113Y-111449907D01*
X154294110Y-111449911D01*
X154206509Y-111581014D01*
X154206502Y-111581027D01*
X154146164Y-111726698D01*
X154146161Y-111726710D01*
X154115400Y-111881353D01*
X154115400Y-112039046D01*
X154146161Y-112193689D01*
X154146164Y-112193701D01*
X154206502Y-112339372D01*
X154206509Y-112339385D01*
X154294110Y-112470488D01*
X154294113Y-112470492D01*
X154405607Y-112581986D01*
X154405611Y-112581989D01*
X154536714Y-112669590D01*
X154536727Y-112669597D01*
X154682398Y-112729935D01*
X154682403Y-112729937D01*
X154821871Y-112757679D01*
X154837053Y-112760699D01*
X154837056Y-112760700D01*
X154837058Y-112760700D01*
X154994744Y-112760700D01*
X154994745Y-112760699D01*
X155149397Y-112729937D01*
X155279157Y-112676189D01*
X155295072Y-112669597D01*
X155295072Y-112669596D01*
X155295079Y-112669594D01*
X155426189Y-112581989D01*
X155537689Y-112470489D01*
X155625294Y-112339379D01*
X155685637Y-112193697D01*
X155716400Y-112039042D01*
X155716400Y-111881358D01*
X155716400Y-111881355D01*
X155716399Y-111881353D01*
X155710045Y-111849411D01*
X155685637Y-111726703D01*
X155652835Y-111647511D01*
X155625297Y-111581027D01*
X155625290Y-111581014D01*
X155537689Y-111449911D01*
X155537686Y-111449907D01*
X155426192Y-111338413D01*
X155426188Y-111338410D01*
X155378718Y-111306691D01*
X155333913Y-111253078D01*
X155325206Y-111183753D01*
X155355361Y-111120726D01*
X155409292Y-111085658D01*
X155444902Y-111074087D01*
X155607447Y-110991265D01*
X155624976Y-110978530D01*
X155624976Y-110978529D01*
X155051448Y-110405000D01*
X155053319Y-110405000D01*
X155156324Y-110377400D01*
X155248676Y-110324081D01*
X155324081Y-110248676D01*
X155377400Y-110156324D01*
X155405000Y-110053319D01*
X155405000Y-110051447D01*
X155978529Y-110624976D01*
X155978530Y-110624976D01*
X155991265Y-110607447D01*
X156074086Y-110444904D01*
X156130461Y-110271400D01*
X156147527Y-110163657D01*
X156177456Y-110100522D01*
X156236768Y-110063591D01*
X156306630Y-110064589D01*
X156364863Y-110103199D01*
X156392473Y-110163657D01*
X156409538Y-110271400D01*
X156465913Y-110444906D01*
X156548734Y-110607447D01*
X156561468Y-110624976D01*
X156561469Y-110624976D01*
X157135000Y-110051445D01*
X157135000Y-110053319D01*
X157162600Y-110156324D01*
X157215919Y-110248676D01*
X157291324Y-110324081D01*
X157383676Y-110377400D01*
X157486681Y-110405000D01*
X157488553Y-110405000D01*
X156915022Y-110978529D01*
X156915022Y-110978530D01*
X156932551Y-110991265D01*
X156932553Y-110991266D01*
X157095095Y-111074086D01*
X157268599Y-111130461D01*
X157448780Y-111159000D01*
X157631220Y-111159000D01*
X157811400Y-111130461D01*
X157984904Y-111074086D01*
X158147447Y-110991265D01*
X158164976Y-110978530D01*
X158164976Y-110978529D01*
X157591448Y-110405000D01*
X157593319Y-110405000D01*
X157696324Y-110377400D01*
X157788676Y-110324081D01*
X157864081Y-110248676D01*
X157917400Y-110156324D01*
X157945000Y-110053319D01*
X157945000Y-110051447D01*
X158518529Y-110624976D01*
X158518530Y-110624976D01*
X158531265Y-110607447D01*
X158614086Y-110444904D01*
X158670461Y-110271400D01*
X158687527Y-110163657D01*
X158717456Y-110100522D01*
X158776768Y-110063591D01*
X158846630Y-110064589D01*
X158904863Y-110103199D01*
X158932473Y-110163657D01*
X158949538Y-110271400D01*
X159005913Y-110444904D01*
X159088736Y-110607451D01*
X159141129Y-110679565D01*
X159164609Y-110745371D01*
X159148783Y-110813425D01*
X159098677Y-110862120D01*
X159065004Y-110874067D01*
X159005207Y-110885962D01*
X159005198Y-110885964D01*
X158859527Y-110946302D01*
X158859514Y-110946309D01*
X158728411Y-111033910D01*
X158728407Y-111033913D01*
X158616913Y-111145407D01*
X158616910Y-111145411D01*
X158529309Y-111276514D01*
X158529302Y-111276527D01*
X158468964Y-111422198D01*
X158468961Y-111422210D01*
X158438200Y-111576853D01*
X158438200Y-111734546D01*
X158468961Y-111889189D01*
X158468964Y-111889201D01*
X158529302Y-112034872D01*
X158529309Y-112034885D01*
X158616910Y-112165988D01*
X158616913Y-112165992D01*
X158728407Y-112277486D01*
X158728411Y-112277489D01*
X158859514Y-112365090D01*
X158859527Y-112365097D01*
X159005198Y-112425435D01*
X159005203Y-112425437D01*
X159150995Y-112454437D01*
X159159853Y-112456199D01*
X159159856Y-112456200D01*
X159159858Y-112456200D01*
X159317544Y-112456200D01*
X159317545Y-112456199D01*
X159472197Y-112425437D01*
X159617879Y-112365094D01*
X159748989Y-112277489D01*
X159860489Y-112165989D01*
X159935136Y-112054272D01*
X159988748Y-112009467D01*
X160058073Y-112000760D01*
X160121100Y-112030914D01*
X160157820Y-112090357D01*
X160159855Y-112147354D01*
X160133300Y-112280853D01*
X160133300Y-112438546D01*
X160164061Y-112593189D01*
X160164064Y-112593201D01*
X160224402Y-112738872D01*
X160224409Y-112738885D01*
X160312010Y-112869988D01*
X160312013Y-112869992D01*
X160423507Y-112981486D01*
X160423511Y-112981489D01*
X160554614Y-113069090D01*
X160554627Y-113069097D01*
X160700298Y-113129435D01*
X160700303Y-113129437D01*
X160854953Y-113160199D01*
X160854956Y-113160200D01*
X160854958Y-113160200D01*
X161012644Y-113160200D01*
X161012645Y-113160199D01*
X161167297Y-113129437D01*
X161312979Y-113069094D01*
X161444089Y-112981489D01*
X161555589Y-112869989D01*
X161643194Y-112738879D01*
X161646898Y-112729938D01*
X161671891Y-112669597D01*
X161703537Y-112593197D01*
X161717223Y-112524387D01*
X161749607Y-112462480D01*
X161791388Y-112434020D01*
X161792439Y-112433585D01*
X161813694Y-112424780D01*
X161887773Y-112394097D01*
X161887776Y-112394095D01*
X161887779Y-112394094D01*
X162018889Y-112306489D01*
X162130389Y-112194989D01*
X162207922Y-112078953D01*
X163071600Y-112078953D01*
X163071600Y-112236646D01*
X163102361Y-112391289D01*
X163102364Y-112391301D01*
X163162702Y-112536972D01*
X163162709Y-112536985D01*
X163250310Y-112668088D01*
X163250313Y-112668092D01*
X163361807Y-112779586D01*
X163361811Y-112779589D01*
X163492914Y-112867190D01*
X163492927Y-112867197D01*
X163638598Y-112927535D01*
X163638603Y-112927537D01*
X163793253Y-112958299D01*
X163793256Y-112958300D01*
X163793258Y-112958300D01*
X163950944Y-112958300D01*
X163950945Y-112958299D01*
X164105597Y-112927537D01*
X164251279Y-112867194D01*
X164382389Y-112779589D01*
X164493889Y-112668089D01*
X164581494Y-112536979D01*
X164641837Y-112391297D01*
X164672600Y-112236642D01*
X164672600Y-112078958D01*
X164672600Y-112078955D01*
X164655633Y-111993658D01*
X164655633Y-111993657D01*
X164652032Y-111975553D01*
X165651200Y-111975553D01*
X165651200Y-112133246D01*
X165681961Y-112287889D01*
X165681964Y-112287901D01*
X165742302Y-112433572D01*
X165742309Y-112433585D01*
X165829910Y-112564688D01*
X165829913Y-112564692D01*
X165941407Y-112676186D01*
X165941411Y-112676189D01*
X166072514Y-112763790D01*
X166072527Y-112763797D01*
X166218198Y-112824135D01*
X166218203Y-112824137D01*
X166372853Y-112854899D01*
X166372856Y-112854900D01*
X166372858Y-112854900D01*
X166530544Y-112854900D01*
X166530545Y-112854899D01*
X166685197Y-112824137D01*
X166830879Y-112763794D01*
X166961989Y-112676189D01*
X167073489Y-112564689D01*
X167161094Y-112433579D01*
X167216568Y-112299653D01*
X168091600Y-112299653D01*
X168091600Y-112457346D01*
X168122361Y-112611989D01*
X168122364Y-112612001D01*
X168182702Y-112757672D01*
X168182709Y-112757685D01*
X168270310Y-112888788D01*
X168270313Y-112888792D01*
X168381807Y-113000286D01*
X168381811Y-113000289D01*
X168512914Y-113087890D01*
X168512927Y-113087897D01*
X168658598Y-113148235D01*
X168658603Y-113148237D01*
X168813253Y-113178999D01*
X168813256Y-113179000D01*
X168813258Y-113179000D01*
X168970944Y-113179000D01*
X168970945Y-113178999D01*
X169125597Y-113148237D01*
X169271279Y-113087894D01*
X169402389Y-113000289D01*
X169513889Y-112888789D01*
X169601494Y-112757679D01*
X169661837Y-112611997D01*
X169692600Y-112457342D01*
X169692600Y-112299658D01*
X169692600Y-112299655D01*
X169692599Y-112299653D01*
X169680066Y-112236646D01*
X169661837Y-112145003D01*
X169656966Y-112133244D01*
X169601497Y-111999327D01*
X169601490Y-111999314D01*
X169513889Y-111868211D01*
X169513886Y-111868207D01*
X169402392Y-111756713D01*
X169402388Y-111756710D01*
X169271285Y-111669109D01*
X169271272Y-111669102D01*
X169125601Y-111608764D01*
X169125589Y-111608761D01*
X168970945Y-111578000D01*
X168970942Y-111578000D01*
X168813258Y-111578000D01*
X168813255Y-111578000D01*
X168658610Y-111608761D01*
X168658598Y-111608764D01*
X168512927Y-111669102D01*
X168512914Y-111669109D01*
X168381811Y-111756710D01*
X168381807Y-111756713D01*
X168270313Y-111868207D01*
X168270310Y-111868211D01*
X168182709Y-111999314D01*
X168182702Y-111999327D01*
X168122364Y-112144998D01*
X168122361Y-112145010D01*
X168091600Y-112299653D01*
X167216568Y-112299653D01*
X167221437Y-112287897D01*
X167222838Y-112280853D01*
X167225122Y-112269374D01*
X167225122Y-112269373D01*
X167241695Y-112186053D01*
X167252200Y-112133242D01*
X167252200Y-111975558D01*
X167252200Y-111975555D01*
X167252199Y-111975553D01*
X167240790Y-111918197D01*
X167221437Y-111820903D01*
X167203926Y-111778627D01*
X167161097Y-111675227D01*
X167161090Y-111675214D01*
X167073489Y-111544111D01*
X167073486Y-111544107D01*
X166961992Y-111432613D01*
X166961988Y-111432610D01*
X166830885Y-111345009D01*
X166830872Y-111345002D01*
X166685201Y-111284664D01*
X166685189Y-111284661D01*
X166530545Y-111253900D01*
X166530542Y-111253900D01*
X166372858Y-111253900D01*
X166372855Y-111253900D01*
X166218210Y-111284661D01*
X166218198Y-111284664D01*
X166072527Y-111345002D01*
X166072514Y-111345009D01*
X165941411Y-111432610D01*
X165941407Y-111432613D01*
X165829913Y-111544107D01*
X165829910Y-111544111D01*
X165742309Y-111675214D01*
X165742302Y-111675227D01*
X165681964Y-111820898D01*
X165681961Y-111820910D01*
X165651200Y-111975553D01*
X164652032Y-111975553D01*
X164647653Y-111953542D01*
X164641837Y-111924303D01*
X164641835Y-111924298D01*
X164581497Y-111778627D01*
X164581490Y-111778614D01*
X164493889Y-111647511D01*
X164493886Y-111647507D01*
X164382392Y-111536013D01*
X164382388Y-111536010D01*
X164251285Y-111448409D01*
X164251272Y-111448402D01*
X164105601Y-111388064D01*
X164105589Y-111388061D01*
X163950945Y-111357300D01*
X163950942Y-111357300D01*
X163793258Y-111357300D01*
X163793255Y-111357300D01*
X163638610Y-111388061D01*
X163638598Y-111388064D01*
X163492927Y-111448402D01*
X163492914Y-111448409D01*
X163361811Y-111536010D01*
X163361807Y-111536013D01*
X163250313Y-111647507D01*
X163250310Y-111647511D01*
X163162709Y-111778614D01*
X163162702Y-111778627D01*
X163102364Y-111924298D01*
X163102361Y-111924310D01*
X163071600Y-112078953D01*
X162207922Y-112078953D01*
X162217994Y-112063879D01*
X162230009Y-112034872D01*
X162233927Y-112025414D01*
X162257741Y-111967919D01*
X162278337Y-111918197D01*
X162309100Y-111763542D01*
X162309100Y-111605858D01*
X162309100Y-111605855D01*
X162309099Y-111605853D01*
X162303559Y-111578000D01*
X162278337Y-111451203D01*
X162277180Y-111448409D01*
X162215954Y-111300595D01*
X162208485Y-111231126D01*
X162239760Y-111168647D01*
X162299849Y-111132995D01*
X162349913Y-111130670D01*
X162528780Y-111159000D01*
X162711220Y-111159000D01*
X162891400Y-111130461D01*
X163064904Y-111074086D01*
X163227452Y-110991263D01*
X163275126Y-110956626D01*
X163340932Y-110933145D01*
X163408986Y-110948970D01*
X163416903Y-110953841D01*
X163510514Y-111016390D01*
X163510527Y-111016397D01*
X163649803Y-111074086D01*
X163656203Y-111076737D01*
X163810853Y-111107499D01*
X163810856Y-111107500D01*
X163810858Y-111107500D01*
X163968544Y-111107500D01*
X163968545Y-111107499D01*
X164123197Y-111076737D01*
X164268879Y-111016394D01*
X164306490Y-110991263D01*
X164362809Y-110953632D01*
X164429486Y-110932754D01*
X164496866Y-110951238D01*
X164504586Y-110956416D01*
X164552551Y-110991265D01*
X164715095Y-111074086D01*
X164888599Y-111130461D01*
X165068780Y-111159000D01*
X165251220Y-111159000D01*
X165431400Y-111130461D01*
X165604904Y-111074086D01*
X165767447Y-110991265D01*
X165784976Y-110978530D01*
X165784976Y-110978529D01*
X165211446Y-110405000D01*
X165213319Y-110405000D01*
X165316324Y-110377400D01*
X165408676Y-110324081D01*
X165484081Y-110248676D01*
X165537400Y-110156324D01*
X165565000Y-110053319D01*
X165565000Y-110051447D01*
X166138529Y-110624976D01*
X166138530Y-110624976D01*
X166151265Y-110607447D01*
X166234086Y-110444904D01*
X166290461Y-110271400D01*
X166319000Y-110091220D01*
X166319000Y-109908783D01*
X166317730Y-109900766D01*
X166317730Y-109900763D01*
X166315428Y-109886231D01*
X170064500Y-109886231D01*
X170064500Y-110113768D01*
X170100093Y-110338490D01*
X170170400Y-110554876D01*
X170170401Y-110554879D01*
X170237881Y-110687315D01*
X170273697Y-110757607D01*
X170407434Y-110941680D01*
X170568320Y-111102566D01*
X170752393Y-111236303D01*
X170831337Y-111276527D01*
X170955120Y-111339598D01*
X170955123Y-111339599D01*
X170971774Y-111345009D01*
X171171511Y-111409907D01*
X171275591Y-111426391D01*
X171396232Y-111445500D01*
X171396237Y-111445500D01*
X171623768Y-111445500D01*
X171732710Y-111428244D01*
X171848489Y-111409907D01*
X172064879Y-111339598D01*
X172267607Y-111236303D01*
X172451680Y-111102566D01*
X172612566Y-110941680D01*
X172746303Y-110757607D01*
X172849598Y-110554879D01*
X172919907Y-110338489D01*
X172947598Y-110163657D01*
X172955500Y-110113768D01*
X172955500Y-109886231D01*
X172934132Y-109751324D01*
X172919907Y-109661511D01*
X172871932Y-109513858D01*
X172849599Y-109445123D01*
X172849598Y-109445120D01*
X172781912Y-109312280D01*
X172746303Y-109242393D01*
X172612566Y-109058320D01*
X172451680Y-108897434D01*
X172267607Y-108763697D01*
X172217649Y-108738242D01*
X172064879Y-108660401D01*
X172064876Y-108660400D01*
X171848490Y-108590093D01*
X171623768Y-108554500D01*
X171623763Y-108554500D01*
X171396237Y-108554500D01*
X171396232Y-108554500D01*
X171171509Y-108590093D01*
X170955123Y-108660400D01*
X170955120Y-108660401D01*
X170752392Y-108763697D01*
X170700360Y-108801501D01*
X170568320Y-108897434D01*
X170568318Y-108897436D01*
X170568317Y-108897436D01*
X170407436Y-109058317D01*
X170407436Y-109058318D01*
X170407434Y-109058320D01*
X170355555Y-109129725D01*
X170273697Y-109242392D01*
X170170401Y-109445120D01*
X170170400Y-109445123D01*
X170100093Y-109661509D01*
X170064500Y-109886231D01*
X166315428Y-109886231D01*
X166290461Y-109728598D01*
X166234086Y-109555095D01*
X166151266Y-109392553D01*
X166151265Y-109392551D01*
X166138529Y-109375022D01*
X165565000Y-109948551D01*
X165565000Y-109946681D01*
X165537400Y-109843676D01*
X165484081Y-109751324D01*
X165408676Y-109675919D01*
X165316324Y-109622600D01*
X165213319Y-109595000D01*
X165211447Y-109595000D01*
X165784976Y-109021469D01*
X165784976Y-109021468D01*
X165767447Y-109008734D01*
X165604906Y-108925913D01*
X165431400Y-108869538D01*
X165251220Y-108841000D01*
X165068780Y-108841000D01*
X164888599Y-108869538D01*
X164715095Y-108925913D01*
X164552554Y-109008732D01*
X164535022Y-109021468D01*
X164535022Y-109021469D01*
X165108554Y-109595000D01*
X165106681Y-109595000D01*
X165003676Y-109622600D01*
X164911324Y-109675919D01*
X164835919Y-109751324D01*
X164782600Y-109843676D01*
X164755000Y-109946681D01*
X164755000Y-109948553D01*
X164181469Y-109375022D01*
X164181468Y-109375022D01*
X164168733Y-109392552D01*
X164140208Y-109448536D01*
X164092233Y-109499332D01*
X164024412Y-109516126D01*
X164005534Y-109513858D01*
X163986275Y-109510027D01*
X163968542Y-109506500D01*
X163810858Y-109506500D01*
X163810857Y-109506500D01*
X163774408Y-109513749D01*
X163704816Y-109507519D01*
X163649640Y-109464655D01*
X163639735Y-109448426D01*
X163611266Y-109392552D01*
X163611265Y-109392551D01*
X163598529Y-109375022D01*
X163025000Y-109948551D01*
X163025000Y-109946681D01*
X162997400Y-109843676D01*
X162944081Y-109751324D01*
X162868676Y-109675919D01*
X162776324Y-109622600D01*
X162673319Y-109595000D01*
X162671444Y-109595000D01*
X162864061Y-109402384D01*
X162904287Y-109375505D01*
X163006679Y-109333094D01*
X163137789Y-109245489D01*
X163249289Y-109133989D01*
X163336894Y-109002879D01*
X163397237Y-108857197D01*
X163428000Y-108702542D01*
X163428000Y-108625041D01*
X163447685Y-108558002D01*
X163500489Y-108512247D01*
X163569647Y-108502303D01*
X163633203Y-108531328D01*
X163639681Y-108537360D01*
X163694807Y-108592486D01*
X163694811Y-108592489D01*
X163825914Y-108680090D01*
X163825927Y-108680097D01*
X163966313Y-108738246D01*
X163971603Y-108740437D01*
X164126253Y-108771199D01*
X164126256Y-108771200D01*
X164126258Y-108771200D01*
X164283944Y-108771200D01*
X164283945Y-108771199D01*
X164438597Y-108740437D01*
X164584279Y-108680094D01*
X164715389Y-108592489D01*
X164826889Y-108480989D01*
X164914494Y-108349879D01*
X164974837Y-108204197D01*
X165005600Y-108049542D01*
X165005600Y-107891858D01*
X165005600Y-107891855D01*
X165005599Y-107891853D01*
X164983752Y-107782021D01*
X164974837Y-107737203D01*
X164966679Y-107717508D01*
X164914497Y-107591527D01*
X164914490Y-107591514D01*
X164826889Y-107460411D01*
X164826886Y-107460407D01*
X164715392Y-107348913D01*
X164715388Y-107348910D01*
X164584285Y-107261309D01*
X164584272Y-107261302D01*
X164438601Y-107200964D01*
X164438589Y-107200961D01*
X164283945Y-107170200D01*
X164283942Y-107170200D01*
X164126258Y-107170200D01*
X164126255Y-107170200D01*
X163971610Y-107200961D01*
X163971598Y-107200964D01*
X163825927Y-107261302D01*
X163825914Y-107261309D01*
X163694811Y-107348910D01*
X163694807Y-107348913D01*
X163583313Y-107460407D01*
X163583310Y-107460411D01*
X163495709Y-107591514D01*
X163495702Y-107591527D01*
X163435364Y-107737198D01*
X163435361Y-107737210D01*
X163404600Y-107891853D01*
X163404600Y-107969359D01*
X163384915Y-108036398D01*
X163332111Y-108082153D01*
X163262953Y-108092097D01*
X163199397Y-108063072D01*
X163192919Y-108057040D01*
X163137792Y-108001913D01*
X163137788Y-108001910D01*
X163006685Y-107914309D01*
X163006672Y-107914302D01*
X162861001Y-107853964D01*
X162860989Y-107853961D01*
X162706345Y-107823200D01*
X162706342Y-107823200D01*
X162548658Y-107823200D01*
X162548655Y-107823200D01*
X162394010Y-107853961D01*
X162393998Y-107853964D01*
X162248327Y-107914302D01*
X162248314Y-107914309D01*
X162112146Y-108005295D01*
X162111389Y-108004163D01*
X162053441Y-108028759D01*
X161984576Y-108016951D01*
X161933027Y-107969787D01*
X161924553Y-107953039D01*
X161920462Y-107943163D01*
X161917794Y-107936721D01*
X161917792Y-107936718D01*
X161917790Y-107936714D01*
X161830189Y-107805611D01*
X161830186Y-107805607D01*
X161718692Y-107694113D01*
X161718688Y-107694110D01*
X161587585Y-107606509D01*
X161587572Y-107606502D01*
X161441901Y-107546164D01*
X161441889Y-107546161D01*
X161287245Y-107515400D01*
X161287242Y-107515400D01*
X161129558Y-107515400D01*
X161129555Y-107515400D01*
X160974910Y-107546161D01*
X160974898Y-107546164D01*
X160829227Y-107606502D01*
X160829214Y-107606509D01*
X160698111Y-107694110D01*
X160674713Y-107717508D01*
X160613389Y-107750992D01*
X160543697Y-107746006D01*
X160487765Y-107704134D01*
X160483941Y-107698731D01*
X160451989Y-107650911D01*
X160451987Y-107650908D01*
X160340492Y-107539413D01*
X160340488Y-107539410D01*
X160209385Y-107451809D01*
X160209372Y-107451802D01*
X160063701Y-107391464D01*
X160063689Y-107391461D01*
X159909045Y-107360700D01*
X159909042Y-107360700D01*
X159751358Y-107360700D01*
X159751355Y-107360700D01*
X159596710Y-107391461D01*
X159596698Y-107391464D01*
X159451027Y-107451802D01*
X159451014Y-107451809D01*
X159319911Y-107539410D01*
X159319907Y-107539413D01*
X159208413Y-107650907D01*
X159208410Y-107650911D01*
X159120809Y-107782014D01*
X159120802Y-107782027D01*
X159060464Y-107927698D01*
X159060461Y-107927710D01*
X159029700Y-108082353D01*
X159029700Y-108240046D01*
X159060461Y-108394689D01*
X159060464Y-108394701D01*
X159120802Y-108540372D01*
X159120809Y-108540385D01*
X159208410Y-108671488D01*
X159208413Y-108671492D01*
X159319907Y-108782986D01*
X159319911Y-108782989D01*
X159413347Y-108845422D01*
X159458152Y-108899035D01*
X159466859Y-108968360D01*
X159457695Y-108987512D01*
X159455022Y-109021469D01*
X160028554Y-109595000D01*
X160026681Y-109595000D01*
X159923676Y-109622600D01*
X159831324Y-109675919D01*
X159755919Y-109751324D01*
X159702600Y-109843676D01*
X159675000Y-109946681D01*
X159675000Y-109948553D01*
X159101469Y-109375022D01*
X159101468Y-109375022D01*
X159088732Y-109392554D01*
X159005913Y-109555095D01*
X158949537Y-109728599D01*
X158932473Y-109836342D01*
X158902544Y-109899477D01*
X158843232Y-109936408D01*
X158773370Y-109935410D01*
X158715137Y-109896800D01*
X158687527Y-109836342D01*
X158670462Y-109728599D01*
X158614086Y-109555095D01*
X158531266Y-109392553D01*
X158531265Y-109392551D01*
X158518530Y-109375022D01*
X158461541Y-109370537D01*
X158461928Y-109365619D01*
X158422920Y-109361120D01*
X158368858Y-109316858D01*
X158347307Y-109250395D01*
X158365111Y-109182832D01*
X158368138Y-109178067D01*
X158425594Y-109092079D01*
X158485937Y-108946397D01*
X158516700Y-108791742D01*
X158516700Y-108634058D01*
X158516700Y-108634055D01*
X158516699Y-108634053D01*
X158506058Y-108580558D01*
X158485937Y-108479403D01*
X158450848Y-108394689D01*
X158425597Y-108333727D01*
X158425590Y-108333714D01*
X158337989Y-108202611D01*
X158337986Y-108202607D01*
X158226492Y-108091113D01*
X158226488Y-108091110D01*
X158095385Y-108003509D01*
X158095372Y-108003502D01*
X157949701Y-107943164D01*
X157949689Y-107943161D01*
X157795045Y-107912400D01*
X157795042Y-107912400D01*
X157637358Y-107912400D01*
X157637355Y-107912400D01*
X157482710Y-107943161D01*
X157482698Y-107943164D01*
X157337027Y-108003502D01*
X157337014Y-108003509D01*
X157205911Y-108091110D01*
X157205907Y-108091113D01*
X157094413Y-108202607D01*
X157094410Y-108202611D01*
X157006809Y-108333714D01*
X157006802Y-108333727D01*
X156946464Y-108479398D01*
X156946461Y-108479410D01*
X156915700Y-108634053D01*
X156915700Y-108791746D01*
X156940053Y-108914177D01*
X156939217Y-108923513D01*
X156942291Y-108932372D01*
X156938963Y-108967509D01*
X156923795Y-109030242D01*
X157040807Y-109147253D01*
X157056228Y-109166044D01*
X157094412Y-109223191D01*
X157205910Y-109334689D01*
X157263057Y-109372873D01*
X157281847Y-109388294D01*
X157488554Y-109595000D01*
X157486681Y-109595000D01*
X157383676Y-109622600D01*
X157291324Y-109675919D01*
X157215919Y-109751324D01*
X157162600Y-109843676D01*
X157135000Y-109946681D01*
X157135000Y-109948553D01*
X156561469Y-109375022D01*
X156561468Y-109375022D01*
X156548732Y-109392554D01*
X156465913Y-109555095D01*
X156409537Y-109728599D01*
X156392473Y-109836342D01*
X156362544Y-109899477D01*
X156303232Y-109936408D01*
X156233370Y-109935410D01*
X156175137Y-109896800D01*
X156147527Y-109836342D01*
X156130462Y-109728599D01*
X156074086Y-109555095D01*
X155991266Y-109392553D01*
X155991265Y-109392551D01*
X155978529Y-109375022D01*
X155405000Y-109948551D01*
X155405000Y-109946681D01*
X155377400Y-109843676D01*
X155324081Y-109751324D01*
X155248676Y-109675919D01*
X155156324Y-109622600D01*
X155053319Y-109595000D01*
X155051444Y-109595000D01*
X155239188Y-109407255D01*
X155279417Y-109380375D01*
X155307379Y-109368794D01*
X155438489Y-109281189D01*
X155549989Y-109169689D01*
X155637594Y-109038579D01*
X155697937Y-108892897D01*
X155728700Y-108738242D01*
X155728700Y-108580558D01*
X155728700Y-108580555D01*
X155728699Y-108580553D01*
X155697938Y-108425910D01*
X155697937Y-108425903D01*
X155659757Y-108333727D01*
X155637597Y-108280227D01*
X155637590Y-108280214D01*
X155549989Y-108149111D01*
X155549986Y-108149107D01*
X155438492Y-108037613D01*
X155438488Y-108037610D01*
X155307385Y-107950009D01*
X155307372Y-107950002D01*
X155161701Y-107889664D01*
X155161689Y-107889661D01*
X155007045Y-107858900D01*
X155007042Y-107858900D01*
X154849358Y-107858900D01*
X154849355Y-107858900D01*
X154694710Y-107889661D01*
X154694698Y-107889664D01*
X154549027Y-107950002D01*
X154549014Y-107950009D01*
X154417911Y-108037610D01*
X154417907Y-108037613D01*
X154306413Y-108149107D01*
X154306410Y-108149111D01*
X154218809Y-108280214D01*
X154218802Y-108280227D01*
X154158464Y-108425898D01*
X154158461Y-108425910D01*
X154127700Y-108580553D01*
X154127700Y-108738246D01*
X154158461Y-108892889D01*
X154158464Y-108892901D01*
X154218802Y-109038572D01*
X154218809Y-109038585D01*
X154306410Y-109169688D01*
X154306413Y-109169692D01*
X154417907Y-109281186D01*
X154417911Y-109281189D01*
X154549014Y-109368790D01*
X154549027Y-109368797D01*
X154606383Y-109392554D01*
X154694703Y-109429137D01*
X154767648Y-109443646D01*
X154829555Y-109476028D01*
X154831135Y-109477581D01*
X154948554Y-109595000D01*
X154946681Y-109595000D01*
X154843676Y-109622600D01*
X154751324Y-109675919D01*
X154675919Y-109751324D01*
X154622600Y-109843676D01*
X154595000Y-109946681D01*
X154595000Y-109948553D01*
X154021469Y-109375022D01*
X154021468Y-109375022D01*
X154008732Y-109392554D01*
X153925913Y-109555095D01*
X153869538Y-109728599D01*
X153841000Y-109908779D01*
X128000000Y-109908779D01*
X128000000Y-106337353D01*
X151306800Y-106337353D01*
X151306800Y-106495046D01*
X151337561Y-106649689D01*
X151337564Y-106649701D01*
X151397902Y-106795372D01*
X151397909Y-106795385D01*
X151485510Y-106926488D01*
X151485513Y-106926492D01*
X151597007Y-107037986D01*
X151597011Y-107037989D01*
X151728114Y-107125590D01*
X151728127Y-107125597D01*
X151835810Y-107170200D01*
X151873803Y-107185937D01*
X152028453Y-107216699D01*
X152028456Y-107216700D01*
X152028458Y-107216700D01*
X152186144Y-107216700D01*
X152186145Y-107216699D01*
X152340797Y-107185937D01*
X152486479Y-107125594D01*
X152617589Y-107037989D01*
X152729089Y-106926489D01*
X152816694Y-106795379D01*
X152877037Y-106649697D01*
X152907800Y-106495042D01*
X152907800Y-106337358D01*
X152907800Y-106337355D01*
X152907799Y-106337353D01*
X152877947Y-106187279D01*
X152877037Y-106182703D01*
X152877035Y-106182698D01*
X152816697Y-106037027D01*
X152816690Y-106037014D01*
X152729089Y-105905911D01*
X152729086Y-105905907D01*
X152617592Y-105794413D01*
X152617588Y-105794410D01*
X152520075Y-105729253D01*
X167859700Y-105729253D01*
X167859700Y-105886946D01*
X167890461Y-106041589D01*
X167890464Y-106041601D01*
X167950802Y-106187272D01*
X167950809Y-106187285D01*
X168038410Y-106318388D01*
X168038413Y-106318392D01*
X168149907Y-106429886D01*
X168149911Y-106429889D01*
X168281014Y-106517490D01*
X168281027Y-106517497D01*
X168426698Y-106577835D01*
X168426703Y-106577837D01*
X168581353Y-106608599D01*
X168581356Y-106608600D01*
X168581358Y-106608600D01*
X168739044Y-106608600D01*
X168739045Y-106608599D01*
X168893697Y-106577837D01*
X169039379Y-106517494D01*
X169170489Y-106429889D01*
X169281989Y-106318389D01*
X169369594Y-106187279D01*
X169371490Y-106182703D01*
X169429935Y-106041601D01*
X169429937Y-106041597D01*
X169460700Y-105886942D01*
X169460700Y-105729258D01*
X169460700Y-105729255D01*
X169460699Y-105729253D01*
X169444231Y-105646463D01*
X169429937Y-105574603D01*
X169429935Y-105574598D01*
X169369597Y-105428927D01*
X169369590Y-105428914D01*
X169281989Y-105297811D01*
X169281986Y-105297807D01*
X169170492Y-105186313D01*
X169170488Y-105186310D01*
X169039385Y-105098709D01*
X169039372Y-105098702D01*
X168893701Y-105038364D01*
X168893689Y-105038361D01*
X168739045Y-105007600D01*
X168739042Y-105007600D01*
X168581358Y-105007600D01*
X168581355Y-105007600D01*
X168426710Y-105038361D01*
X168426698Y-105038364D01*
X168281027Y-105098702D01*
X168281014Y-105098709D01*
X168149911Y-105186310D01*
X168149907Y-105186313D01*
X168038413Y-105297807D01*
X168038410Y-105297811D01*
X167950809Y-105428914D01*
X167950802Y-105428927D01*
X167890464Y-105574598D01*
X167890461Y-105574610D01*
X167859700Y-105729253D01*
X152520075Y-105729253D01*
X152486485Y-105706809D01*
X152486472Y-105706802D01*
X152340801Y-105646464D01*
X152340789Y-105646461D01*
X152186145Y-105615700D01*
X152186142Y-105615700D01*
X152028458Y-105615700D01*
X152028455Y-105615700D01*
X151873810Y-105646461D01*
X151873798Y-105646464D01*
X151728127Y-105706802D01*
X151728114Y-105706809D01*
X151597011Y-105794410D01*
X151597007Y-105794413D01*
X151485513Y-105905907D01*
X151485510Y-105905911D01*
X151397909Y-106037014D01*
X151397902Y-106037027D01*
X151337564Y-106182698D01*
X151337561Y-106182710D01*
X151306800Y-106337353D01*
X128000000Y-106337353D01*
X128000000Y-104380353D01*
X156089300Y-104380353D01*
X156089300Y-104538046D01*
X156120061Y-104692689D01*
X156120064Y-104692701D01*
X156180402Y-104838372D01*
X156180409Y-104838385D01*
X156268010Y-104969488D01*
X156268013Y-104969492D01*
X156379507Y-105080986D01*
X156379511Y-105080989D01*
X156510614Y-105168590D01*
X156510627Y-105168597D01*
X156656298Y-105228935D01*
X156656303Y-105228937D01*
X156810953Y-105259699D01*
X156810956Y-105259700D01*
X156810958Y-105259700D01*
X156968644Y-105259700D01*
X156968645Y-105259699D01*
X157123297Y-105228937D01*
X157268979Y-105168594D01*
X157400089Y-105080989D01*
X157511589Y-104969489D01*
X157599194Y-104838379D01*
X157659537Y-104692697D01*
X157690300Y-104538042D01*
X157690300Y-104535653D01*
X159169000Y-104535653D01*
X159169000Y-104693346D01*
X159199761Y-104847989D01*
X159199764Y-104848001D01*
X159260102Y-104993672D01*
X159260109Y-104993685D01*
X159347710Y-105124788D01*
X159347713Y-105124792D01*
X159459207Y-105236286D01*
X159459211Y-105236289D01*
X159590314Y-105323890D01*
X159590327Y-105323897D01*
X159735998Y-105384235D01*
X159736003Y-105384237D01*
X159890653Y-105414999D01*
X159890656Y-105415000D01*
X159890658Y-105415000D01*
X160048344Y-105415000D01*
X160048345Y-105414999D01*
X160202997Y-105384237D01*
X160348679Y-105323894D01*
X160479789Y-105236289D01*
X160591289Y-105124789D01*
X160678894Y-104993679D01*
X160739237Y-104847997D01*
X160770000Y-104693342D01*
X160770000Y-104535658D01*
X160770000Y-104535655D01*
X160769999Y-104535653D01*
X160744934Y-104409644D01*
X160739237Y-104381003D01*
X160690781Y-104264018D01*
X160683312Y-104194549D01*
X160714587Y-104132070D01*
X160774676Y-104096418D01*
X160844502Y-104098912D01*
X160874230Y-104113462D01*
X160921421Y-104144994D01*
X160921423Y-104144995D01*
X160921427Y-104144997D01*
X161067098Y-104205335D01*
X161067103Y-104205337D01*
X161217807Y-104235314D01*
X161221753Y-104236099D01*
X161221756Y-104236100D01*
X161221758Y-104236100D01*
X161379444Y-104236100D01*
X161379445Y-104236099D01*
X161534097Y-104205337D01*
X161646766Y-104158667D01*
X161679772Y-104144997D01*
X161679772Y-104144996D01*
X161679779Y-104144994D01*
X161810889Y-104057389D01*
X161922389Y-103945889D01*
X162009994Y-103814779D01*
X162070337Y-103669097D01*
X162101080Y-103514544D01*
X162133463Y-103452635D01*
X162194179Y-103418061D01*
X162263949Y-103421800D01*
X162294966Y-103437974D01*
X162303205Y-103443883D01*
X162311511Y-103452189D01*
X162359394Y-103484184D01*
X162361061Y-103485379D01*
X162381349Y-103511359D01*
X162402487Y-103536652D01*
X162402752Y-103538767D01*
X162404064Y-103540447D01*
X162407086Y-103573270D01*
X162411194Y-103605977D01*
X162410366Y-103608892D01*
X162410470Y-103610022D01*
X162409534Y-103611822D01*
X162403352Y-103633594D01*
X162341964Y-103781798D01*
X162341961Y-103781810D01*
X162311200Y-103936453D01*
X162311200Y-104094146D01*
X162341961Y-104248789D01*
X162341964Y-104248801D01*
X162402302Y-104394472D01*
X162402309Y-104394485D01*
X162489910Y-104525588D01*
X162489913Y-104525592D01*
X162601407Y-104637086D01*
X162601411Y-104637089D01*
X162732514Y-104724690D01*
X162732527Y-104724697D01*
X162878198Y-104785035D01*
X162878203Y-104785037D01*
X163032853Y-104815799D01*
X163032856Y-104815800D01*
X163032858Y-104815800D01*
X163190544Y-104815800D01*
X163190545Y-104815799D01*
X163345197Y-104785037D01*
X163490879Y-104724694D01*
X163621989Y-104637089D01*
X163733489Y-104525589D01*
X163821094Y-104394479D01*
X163881437Y-104248797D01*
X163909989Y-104105255D01*
X163942373Y-104043345D01*
X164003089Y-104008771D01*
X164072858Y-104012510D01*
X164104093Y-104028840D01*
X164112210Y-104034688D01*
X164135011Y-104057489D01*
X164256816Y-104138877D01*
X164258589Y-104140154D01*
X164278745Y-104166080D01*
X164299798Y-104191271D01*
X164300171Y-104193639D01*
X164301474Y-104195315D01*
X164302854Y-104210668D01*
X164308399Y-104245866D01*
X164309600Y-104245866D01*
X164309600Y-104409646D01*
X164340361Y-104564289D01*
X164340364Y-104564301D01*
X164400702Y-104709972D01*
X164400709Y-104709985D01*
X164488310Y-104841088D01*
X164488313Y-104841092D01*
X164599807Y-104952586D01*
X164599811Y-104952589D01*
X164730914Y-105040190D01*
X164730927Y-105040197D01*
X164872190Y-105098709D01*
X164876603Y-105100537D01*
X165031253Y-105131299D01*
X165031256Y-105131300D01*
X165031258Y-105131300D01*
X165188944Y-105131300D01*
X165188945Y-105131299D01*
X165343597Y-105100537D01*
X165489279Y-105040194D01*
X165620389Y-104952589D01*
X165731889Y-104841089D01*
X165819494Y-104709979D01*
X165879837Y-104564297D01*
X165910600Y-104409642D01*
X165910600Y-104251958D01*
X165910600Y-104251955D01*
X165910599Y-104251953D01*
X165909388Y-104245866D01*
X165879837Y-104097303D01*
X165863346Y-104057489D01*
X165819497Y-103951627D01*
X165819490Y-103951614D01*
X165731887Y-103820508D01*
X165620392Y-103709013D01*
X165620388Y-103709010D01*
X165500406Y-103628840D01*
X165455601Y-103575228D01*
X165447006Y-103520634D01*
X165445800Y-103520634D01*
X165445800Y-103356855D01*
X165445799Y-103356853D01*
X165441021Y-103332834D01*
X165415037Y-103202203D01*
X165415035Y-103202198D01*
X165354697Y-103056527D01*
X165354690Y-103056514D01*
X165267089Y-102925411D01*
X165267086Y-102925407D01*
X165155592Y-102813913D01*
X165155588Y-102813910D01*
X165024485Y-102726309D01*
X165024472Y-102726302D01*
X164878801Y-102665964D01*
X164878789Y-102665961D01*
X164724145Y-102635200D01*
X164724142Y-102635200D01*
X164566458Y-102635200D01*
X164566455Y-102635200D01*
X164411810Y-102665961D01*
X164411798Y-102665964D01*
X164266127Y-102726302D01*
X164266114Y-102726309D01*
X164135011Y-102813910D01*
X164135007Y-102813913D01*
X164023513Y-102925407D01*
X164023510Y-102925411D01*
X163935909Y-103056514D01*
X163935902Y-103056527D01*
X163875564Y-103202198D01*
X163875561Y-103202208D01*
X163847010Y-103345744D01*
X163846103Y-103347476D01*
X163846219Y-103349428D01*
X163829980Y-103378298D01*
X163814625Y-103407655D01*
X163812925Y-103408622D01*
X163811967Y-103410327D01*
X163782703Y-103425832D01*
X163753909Y-103442229D01*
X163751955Y-103442124D01*
X163750229Y-103443039D01*
X163717238Y-103440263D01*
X163684140Y-103438489D01*
X163681935Y-103437292D01*
X163680605Y-103437181D01*
X163675005Y-103433532D01*
X163649843Y-103419879D01*
X163643427Y-103414949D01*
X163621989Y-103393511D01*
X163572416Y-103360387D01*
X163569158Y-103357884D01*
X163550892Y-103332834D01*
X163531012Y-103309046D01*
X163530484Y-103304847D01*
X163527992Y-103301429D01*
X163526168Y-103270480D01*
X163522305Y-103239721D01*
X163524003Y-103233740D01*
X163523882Y-103231681D01*
X163525307Y-103229145D01*
X163530147Y-103212104D01*
X163531191Y-103209583D01*
X163531194Y-103209579D01*
X163591537Y-103063897D01*
X163622300Y-102909242D01*
X163622300Y-102751558D01*
X163622300Y-102751555D01*
X163622299Y-102751553D01*
X163617256Y-102726202D01*
X163591537Y-102596903D01*
X163589630Y-102592300D01*
X163531197Y-102451227D01*
X163531190Y-102451214D01*
X163443589Y-102320111D01*
X163443586Y-102320107D01*
X163332092Y-102208613D01*
X163332088Y-102208610D01*
X163200985Y-102121009D01*
X163200972Y-102121002D01*
X163055301Y-102060664D01*
X163055289Y-102060661D01*
X162900645Y-102029900D01*
X162900642Y-102029900D01*
X162742958Y-102029900D01*
X162742955Y-102029900D01*
X162588310Y-102060661D01*
X162588298Y-102060664D01*
X162442627Y-102121002D01*
X162442614Y-102121009D01*
X162311511Y-102208610D01*
X162311507Y-102208613D01*
X162200013Y-102320107D01*
X162200010Y-102320111D01*
X162112409Y-102451214D01*
X162112402Y-102451227D01*
X162052064Y-102596898D01*
X162052061Y-102596908D01*
X162021320Y-102751454D01*
X161988935Y-102813365D01*
X161928219Y-102847939D01*
X161858450Y-102844199D01*
X161815858Y-102817360D01*
X161815599Y-102817676D01*
X161813084Y-102815612D01*
X161812022Y-102814943D01*
X161810892Y-102813813D01*
X161810888Y-102813810D01*
X161679785Y-102726209D01*
X161679772Y-102726202D01*
X161534101Y-102665864D01*
X161534089Y-102665861D01*
X161379445Y-102635100D01*
X161379442Y-102635100D01*
X161221758Y-102635100D01*
X161221755Y-102635100D01*
X161067110Y-102665861D01*
X161067098Y-102665864D01*
X160921427Y-102726202D01*
X160921414Y-102726209D01*
X160790311Y-102813810D01*
X160790307Y-102813813D01*
X160678813Y-102925307D01*
X160678810Y-102925311D01*
X160591209Y-103056414D01*
X160591202Y-103056427D01*
X160530864Y-103202098D01*
X160530861Y-103202110D01*
X160500100Y-103356753D01*
X160500100Y-103514446D01*
X160530861Y-103669089D01*
X160530864Y-103669101D01*
X160579318Y-103786081D01*
X160586787Y-103855551D01*
X160555511Y-103918030D01*
X160495422Y-103953681D01*
X160425597Y-103951187D01*
X160395866Y-103936635D01*
X160348685Y-103905109D01*
X160348672Y-103905102D01*
X160203001Y-103844764D01*
X160202989Y-103844761D01*
X160048345Y-103814000D01*
X160048342Y-103814000D01*
X159890658Y-103814000D01*
X159890655Y-103814000D01*
X159736010Y-103844761D01*
X159735998Y-103844764D01*
X159590327Y-103905102D01*
X159590314Y-103905109D01*
X159459211Y-103992710D01*
X159459207Y-103992713D01*
X159347713Y-104104207D01*
X159347710Y-104104211D01*
X159260109Y-104235314D01*
X159260102Y-104235327D01*
X159199764Y-104380998D01*
X159199761Y-104381010D01*
X159169000Y-104535653D01*
X157690300Y-104535653D01*
X157690300Y-104380358D01*
X157690300Y-104380355D01*
X157690299Y-104380353D01*
X157664758Y-104251953D01*
X157659537Y-104225703D01*
X157642594Y-104184800D01*
X157635126Y-104115334D01*
X157666400Y-104052855D01*
X157688261Y-104034251D01*
X157717689Y-104014589D01*
X157829189Y-103903089D01*
X157916794Y-103771979D01*
X157977137Y-103626297D01*
X158007900Y-103471642D01*
X158007900Y-103313958D01*
X158007900Y-103313955D01*
X158007899Y-103313953D01*
X157993133Y-103239721D01*
X157977137Y-103159303D01*
X157934561Y-103056514D01*
X157916797Y-103013627D01*
X157916790Y-103013614D01*
X157829189Y-102882511D01*
X157829186Y-102882507D01*
X157717692Y-102771013D01*
X157717688Y-102771010D01*
X157586585Y-102683409D01*
X157586572Y-102683402D01*
X157446989Y-102625586D01*
X157392585Y-102581745D01*
X157370520Y-102515451D01*
X157387799Y-102447752D01*
X157438936Y-102400141D01*
X157470250Y-102389408D01*
X157499868Y-102383516D01*
X157561097Y-102371337D01*
X157673766Y-102324667D01*
X157706772Y-102310997D01*
X157706772Y-102310996D01*
X157706779Y-102310994D01*
X157837889Y-102223389D01*
X157949389Y-102111889D01*
X158036994Y-101980779D01*
X158097337Y-101835097D01*
X158128100Y-101680442D01*
X158128100Y-101522758D01*
X158128100Y-101522755D01*
X158128099Y-101522753D01*
X158113401Y-101448857D01*
X158109800Y-101430753D01*
X158691700Y-101430753D01*
X158691700Y-101588446D01*
X158722461Y-101743089D01*
X158722464Y-101743101D01*
X158782802Y-101888772D01*
X158782809Y-101888785D01*
X158870410Y-102019888D01*
X158870413Y-102019892D01*
X158981907Y-102131386D01*
X158981911Y-102131389D01*
X159113014Y-102218990D01*
X159113027Y-102218997D01*
X159258698Y-102279335D01*
X159258703Y-102279337D01*
X159413353Y-102310099D01*
X159413356Y-102310100D01*
X159413358Y-102310100D01*
X159571044Y-102310100D01*
X159571045Y-102310099D01*
X159725697Y-102279337D01*
X159838366Y-102232667D01*
X159871372Y-102218997D01*
X159871372Y-102218996D01*
X159871379Y-102218994D01*
X160002489Y-102131389D01*
X160113989Y-102019889D01*
X160201594Y-101888779D01*
X160261937Y-101743097D01*
X160292700Y-101588442D01*
X160292700Y-101430758D01*
X160292700Y-101430755D01*
X160292699Y-101430753D01*
X160277305Y-101353363D01*
X160261937Y-101276103D01*
X160239704Y-101222427D01*
X160201597Y-101130427D01*
X160201590Y-101130414D01*
X160113989Y-100999311D01*
X160113986Y-100999307D01*
X160002492Y-100887813D01*
X160002488Y-100887810D01*
X159871385Y-100800209D01*
X159871372Y-100800202D01*
X159725701Y-100739864D01*
X159725689Y-100739861D01*
X159571045Y-100709100D01*
X159571042Y-100709100D01*
X159413358Y-100709100D01*
X159413355Y-100709100D01*
X159258710Y-100739861D01*
X159258698Y-100739864D01*
X159113027Y-100800202D01*
X159113014Y-100800209D01*
X158981911Y-100887810D01*
X158981907Y-100887813D01*
X158870413Y-100999307D01*
X158870410Y-100999311D01*
X158782809Y-101130414D01*
X158782802Y-101130427D01*
X158722464Y-101276098D01*
X158722461Y-101276110D01*
X158691700Y-101430753D01*
X158109800Y-101430753D01*
X158097338Y-101368108D01*
X158097337Y-101368107D01*
X158097337Y-101368103D01*
X158059228Y-101276098D01*
X158036997Y-101222427D01*
X158036990Y-101222414D01*
X157949389Y-101091311D01*
X157949386Y-101091307D01*
X157837892Y-100979813D01*
X157837888Y-100979810D01*
X157706785Y-100892209D01*
X157706772Y-100892202D01*
X157561101Y-100831864D01*
X157561089Y-100831861D01*
X157406445Y-100801100D01*
X157406442Y-100801100D01*
X157248758Y-100801100D01*
X157248755Y-100801100D01*
X157094110Y-100831861D01*
X157094098Y-100831864D01*
X156948427Y-100892202D01*
X156948414Y-100892209D01*
X156817311Y-100979810D01*
X156817307Y-100979813D01*
X156705813Y-101091307D01*
X156705810Y-101091311D01*
X156618209Y-101222414D01*
X156618202Y-101222427D01*
X156557864Y-101368098D01*
X156557861Y-101368110D01*
X156527100Y-101522753D01*
X156527100Y-101680446D01*
X156557861Y-101835089D01*
X156557864Y-101835101D01*
X156618202Y-101980772D01*
X156618209Y-101980785D01*
X156705810Y-102111888D01*
X156705813Y-102111892D01*
X156817307Y-102223386D01*
X156817311Y-102223389D01*
X156948414Y-102310990D01*
X156948427Y-102310997D01*
X157046748Y-102351722D01*
X157088010Y-102368813D01*
X157142414Y-102412653D01*
X157164479Y-102478947D01*
X157147200Y-102546647D01*
X157096063Y-102594258D01*
X157064751Y-102604991D01*
X156973907Y-102623062D01*
X156973898Y-102623064D01*
X156828227Y-102683402D01*
X156828214Y-102683409D01*
X156697111Y-102771010D01*
X156697107Y-102771013D01*
X156585613Y-102882507D01*
X156585610Y-102882511D01*
X156498009Y-103013614D01*
X156498002Y-103013627D01*
X156437664Y-103159298D01*
X156437661Y-103159310D01*
X156406900Y-103313953D01*
X156406900Y-103471646D01*
X156436690Y-103621406D01*
X156437663Y-103626297D01*
X156441732Y-103636121D01*
X156454604Y-103667197D01*
X156462072Y-103736666D01*
X156430796Y-103799145D01*
X156408936Y-103817748D01*
X156379512Y-103837409D01*
X156379507Y-103837413D01*
X156268013Y-103948907D01*
X156268010Y-103948911D01*
X156180409Y-104080014D01*
X156180402Y-104080027D01*
X156120064Y-104225698D01*
X156120061Y-104225710D01*
X156089300Y-104380353D01*
X128000000Y-104380353D01*
X128000000Y-102044253D01*
X152993300Y-102044253D01*
X152993300Y-102201946D01*
X153024061Y-102356589D01*
X153024064Y-102356601D01*
X153084402Y-102502272D01*
X153084409Y-102502285D01*
X153172010Y-102633388D01*
X153172013Y-102633392D01*
X153283507Y-102744886D01*
X153283511Y-102744889D01*
X153414614Y-102832490D01*
X153414627Y-102832497D01*
X153560298Y-102892835D01*
X153560303Y-102892837D01*
X153714953Y-102923599D01*
X153714956Y-102923600D01*
X153714958Y-102923600D01*
X153872644Y-102923600D01*
X153872645Y-102923599D01*
X154027297Y-102892837D01*
X154143644Y-102844644D01*
X154213111Y-102837176D01*
X154275591Y-102868451D01*
X154311243Y-102928540D01*
X154308749Y-102998365D01*
X154294198Y-103028095D01*
X154275211Y-103056511D01*
X154275202Y-103056527D01*
X154214864Y-103202198D01*
X154214861Y-103202210D01*
X154184100Y-103356853D01*
X154184100Y-103514546D01*
X154214861Y-103669189D01*
X154214864Y-103669201D01*
X154275202Y-103814872D01*
X154275209Y-103814885D01*
X154362810Y-103945988D01*
X154362813Y-103945992D01*
X154474307Y-104057486D01*
X154474311Y-104057489D01*
X154605414Y-104145090D01*
X154605427Y-104145097D01*
X154750864Y-104205338D01*
X154751103Y-104205437D01*
X154853022Y-104225710D01*
X154905753Y-104236199D01*
X154905756Y-104236200D01*
X154905758Y-104236200D01*
X155063444Y-104236200D01*
X155063445Y-104236199D01*
X155218097Y-104205437D01*
X155363779Y-104145094D01*
X155494889Y-104057489D01*
X155606389Y-103945989D01*
X155693994Y-103814879D01*
X155694036Y-103814779D01*
X155711764Y-103771979D01*
X155754337Y-103669197D01*
X155785100Y-103514542D01*
X155785100Y-103356858D01*
X155785100Y-103356855D01*
X155785099Y-103356853D01*
X155780321Y-103332834D01*
X155754337Y-103202203D01*
X155754335Y-103202198D01*
X155693997Y-103056527D01*
X155693990Y-103056514D01*
X155606389Y-102925411D01*
X155606386Y-102925407D01*
X155494892Y-102813913D01*
X155494888Y-102813910D01*
X155363785Y-102726309D01*
X155363772Y-102726302D01*
X155218101Y-102665964D01*
X155218089Y-102665961D01*
X155063445Y-102635200D01*
X155063442Y-102635200D01*
X154905758Y-102635200D01*
X154905755Y-102635200D01*
X154751110Y-102665961D01*
X154751098Y-102665964D01*
X154634756Y-102714154D01*
X154565286Y-102721623D01*
X154502807Y-102690347D01*
X154467155Y-102630258D01*
X154469650Y-102560433D01*
X154484201Y-102530703D01*
X154503194Y-102502279D01*
X154563537Y-102356597D01*
X154594300Y-102201942D01*
X154594300Y-102044258D01*
X154594300Y-102044255D01*
X154594299Y-102044253D01*
X154563538Y-101889610D01*
X154563537Y-101889603D01*
X154540957Y-101835089D01*
X154503197Y-101743927D01*
X154503190Y-101743914D01*
X154415589Y-101612811D01*
X154415586Y-101612807D01*
X154304092Y-101501313D01*
X154304088Y-101501310D01*
X154172985Y-101413709D01*
X154172972Y-101413702D01*
X154027301Y-101353364D01*
X154027289Y-101353361D01*
X153872645Y-101322600D01*
X153872642Y-101322600D01*
X153714958Y-101322600D01*
X153714955Y-101322600D01*
X153560310Y-101353361D01*
X153560298Y-101353364D01*
X153414627Y-101413702D01*
X153414614Y-101413709D01*
X153283511Y-101501310D01*
X153283507Y-101501313D01*
X153172013Y-101612807D01*
X153172010Y-101612811D01*
X153084409Y-101743914D01*
X153084402Y-101743927D01*
X153024064Y-101889598D01*
X153024061Y-101889610D01*
X152993300Y-102044253D01*
X128000000Y-102044253D01*
X128000000Y-99088753D01*
X159916800Y-99088753D01*
X159916800Y-99246446D01*
X159947561Y-99401089D01*
X159947564Y-99401101D01*
X160007902Y-99546772D01*
X160007909Y-99546785D01*
X160095510Y-99677888D01*
X160095513Y-99677892D01*
X160207007Y-99789386D01*
X160207011Y-99789389D01*
X160338114Y-99876990D01*
X160338127Y-99876997D01*
X160483798Y-99937335D01*
X160483803Y-99937337D01*
X160638453Y-99968099D01*
X160638456Y-99968100D01*
X160638458Y-99968100D01*
X160796144Y-99968100D01*
X160796145Y-99968099D01*
X160950797Y-99937337D01*
X161096479Y-99876994D01*
X161227589Y-99789389D01*
X161339089Y-99677889D01*
X161426694Y-99546779D01*
X161487037Y-99401097D01*
X161517800Y-99246442D01*
X161517800Y-99088758D01*
X161517800Y-99088755D01*
X161517799Y-99088753D01*
X161487038Y-98934110D01*
X161487037Y-98934103D01*
X161487035Y-98934098D01*
X161426697Y-98788427D01*
X161426690Y-98788414D01*
X161339089Y-98657311D01*
X161339086Y-98657307D01*
X161227592Y-98545813D01*
X161227588Y-98545810D01*
X161096485Y-98458209D01*
X161096472Y-98458202D01*
X160950801Y-98397864D01*
X160950789Y-98397861D01*
X160796145Y-98367100D01*
X160796142Y-98367100D01*
X160638458Y-98367100D01*
X160638455Y-98367100D01*
X160483810Y-98397861D01*
X160483798Y-98397864D01*
X160338127Y-98458202D01*
X160338114Y-98458209D01*
X160207011Y-98545810D01*
X160207007Y-98545813D01*
X160095513Y-98657307D01*
X160095510Y-98657311D01*
X160007909Y-98788414D01*
X160007902Y-98788427D01*
X159947564Y-98934098D01*
X159947561Y-98934110D01*
X159916800Y-99088753D01*
X128000000Y-99088753D01*
X128000000Y-88861453D01*
X152545400Y-88861453D01*
X152545400Y-89019146D01*
X152576161Y-89173789D01*
X152576164Y-89173801D01*
X152636502Y-89319472D01*
X152636509Y-89319485D01*
X152724110Y-89450588D01*
X152724113Y-89450592D01*
X152835607Y-89562086D01*
X152835611Y-89562089D01*
X152966714Y-89649690D01*
X152966727Y-89649697D01*
X153112398Y-89710035D01*
X153112403Y-89710037D01*
X153267053Y-89740799D01*
X153267056Y-89740800D01*
X153267058Y-89740800D01*
X153424744Y-89740800D01*
X153424745Y-89740799D01*
X153579397Y-89710037D01*
X153692066Y-89663367D01*
X153725072Y-89649697D01*
X153725072Y-89649696D01*
X153725079Y-89649694D01*
X153856189Y-89562089D01*
X153967689Y-89450589D01*
X154024433Y-89365664D01*
X154078043Y-89320861D01*
X154147367Y-89312152D01*
X154174979Y-89319992D01*
X154208403Y-89333837D01*
X154363053Y-89364599D01*
X154363056Y-89364600D01*
X154363058Y-89364600D01*
X154520744Y-89364600D01*
X154520745Y-89364599D01*
X154675397Y-89333837D01*
X154734509Y-89309351D01*
X154803977Y-89301883D01*
X154850851Y-89320810D01*
X154858814Y-89326130D01*
X154919821Y-89366894D01*
X155065503Y-89427237D01*
X155182891Y-89450587D01*
X155220153Y-89457999D01*
X155220156Y-89458000D01*
X155220158Y-89458000D01*
X155377844Y-89458000D01*
X155377845Y-89457999D01*
X155532497Y-89427237D01*
X155678179Y-89366894D01*
X155723366Y-89336701D01*
X155814354Y-89275905D01*
X155815471Y-89277577D01*
X155871268Y-89253856D01*
X155940140Y-89265622D01*
X155958316Y-89277298D01*
X155958446Y-89277105D01*
X156094614Y-89368090D01*
X156094627Y-89368097D01*
X156237401Y-89427235D01*
X156240303Y-89428437D01*
X156363462Y-89452935D01*
X156394953Y-89459199D01*
X156394956Y-89459200D01*
X156394958Y-89459200D01*
X156552644Y-89459200D01*
X156552645Y-89459199D01*
X156707297Y-89428437D01*
X156828588Y-89378197D01*
X156852972Y-89368097D01*
X156852972Y-89368096D01*
X156852979Y-89368094D01*
X156984089Y-89280489D01*
X157095589Y-89168989D01*
X157183194Y-89037879D01*
X157243537Y-88892197D01*
X157274300Y-88737542D01*
X157274300Y-88579858D01*
X157274300Y-88579855D01*
X157274299Y-88579853D01*
X157252069Y-88468097D01*
X157243537Y-88425203D01*
X157243535Y-88425198D01*
X157183197Y-88279527D01*
X157183190Y-88279514D01*
X157142460Y-88218557D01*
X157100495Y-88155753D01*
X157799300Y-88155753D01*
X157799300Y-88313446D01*
X157830061Y-88468089D01*
X157830064Y-88468101D01*
X157890402Y-88613772D01*
X157890409Y-88613785D01*
X157978010Y-88744888D01*
X157978013Y-88744892D01*
X158089508Y-88856387D01*
X158148520Y-88895817D01*
X158193326Y-88949429D01*
X158202033Y-89018754D01*
X158201249Y-89023102D01*
X158201000Y-89024351D01*
X158201000Y-89182046D01*
X158231761Y-89336689D01*
X158231764Y-89336701D01*
X158292102Y-89482372D01*
X158292109Y-89482385D01*
X158379710Y-89613488D01*
X158379713Y-89613492D01*
X158491207Y-89724986D01*
X158491211Y-89724989D01*
X158622314Y-89812590D01*
X158622327Y-89812597D01*
X158767998Y-89872935D01*
X158768003Y-89872937D01*
X158922653Y-89903699D01*
X158922656Y-89903700D01*
X158922658Y-89903700D01*
X159080344Y-89903700D01*
X159080345Y-89903699D01*
X159234997Y-89872937D01*
X159380679Y-89812594D01*
X159511789Y-89724989D01*
X159623289Y-89613489D01*
X159710894Y-89482379D01*
X159771237Y-89336697D01*
X159771239Y-89336689D01*
X159773007Y-89330862D01*
X159774575Y-89331338D01*
X159803285Y-89276439D01*
X159863997Y-89241859D01*
X159916716Y-89240915D01*
X159961521Y-89249827D01*
X159974957Y-89252500D01*
X159974958Y-89252500D01*
X160132644Y-89252500D01*
X160224784Y-89234172D01*
X160294376Y-89240399D01*
X160349553Y-89283262D01*
X160370593Y-89331597D01*
X160379861Y-89378191D01*
X160379864Y-89378201D01*
X160440202Y-89523872D01*
X160440209Y-89523885D01*
X160527810Y-89654988D01*
X160527813Y-89654992D01*
X160639307Y-89766486D01*
X160639311Y-89766489D01*
X160770414Y-89854090D01*
X160770427Y-89854097D01*
X160890179Y-89903699D01*
X160916103Y-89914437D01*
X161070753Y-89945199D01*
X161070756Y-89945200D01*
X161070758Y-89945200D01*
X161228444Y-89945200D01*
X161228445Y-89945199D01*
X161383097Y-89914437D01*
X161528779Y-89854094D01*
X161659889Y-89766489D01*
X161771389Y-89654989D01*
X161858994Y-89523879D01*
X161919337Y-89378197D01*
X161950100Y-89223542D01*
X161950100Y-89065858D01*
X161950100Y-89065855D01*
X161950099Y-89065853D01*
X161940808Y-89019146D01*
X161919337Y-88911203D01*
X161898730Y-88861453D01*
X161858997Y-88765527D01*
X161858990Y-88765514D01*
X161793271Y-88667159D01*
X161793270Y-88667158D01*
X161771386Y-88634407D01*
X161741332Y-88604353D01*
X163384600Y-88604353D01*
X163384600Y-88762046D01*
X163415361Y-88916689D01*
X163415364Y-88916701D01*
X163475702Y-89062372D01*
X163475709Y-89062385D01*
X163563310Y-89193488D01*
X163563313Y-89193492D01*
X163674807Y-89304986D01*
X163674811Y-89304989D01*
X163805914Y-89392590D01*
X163805927Y-89392597D01*
X163951598Y-89452935D01*
X163951603Y-89452937D01*
X164099582Y-89482372D01*
X164106253Y-89483699D01*
X164106256Y-89483700D01*
X164106258Y-89483700D01*
X164263944Y-89483700D01*
X164263945Y-89483699D01*
X164418597Y-89452937D01*
X164564279Y-89392594D01*
X164695389Y-89304989D01*
X164806889Y-89193489D01*
X164894494Y-89062379D01*
X164954837Y-88916697D01*
X164985600Y-88762042D01*
X164985600Y-88604358D01*
X164985600Y-88604355D01*
X164985599Y-88604353D01*
X164977001Y-88561127D01*
X164954837Y-88449703D01*
X164944687Y-88425198D01*
X164894497Y-88304027D01*
X164894490Y-88304014D01*
X164806889Y-88172911D01*
X164806886Y-88172907D01*
X164695392Y-88061413D01*
X164695388Y-88061410D01*
X164591669Y-87992107D01*
X164564284Y-87973809D01*
X164564272Y-87973802D01*
X164418601Y-87913464D01*
X164418589Y-87913461D01*
X164326243Y-87895092D01*
X186924500Y-87895092D01*
X186924500Y-88044907D01*
X186953723Y-88191822D01*
X186953725Y-88191830D01*
X187011051Y-88330229D01*
X187011056Y-88330238D01*
X187094280Y-88454790D01*
X187094283Y-88454794D01*
X187200205Y-88560716D01*
X187200209Y-88560719D01*
X187324761Y-88643943D01*
X187324767Y-88643946D01*
X187324768Y-88643947D01*
X187463170Y-88701275D01*
X187610092Y-88730499D01*
X187610096Y-88730500D01*
X187610097Y-88730500D01*
X187759904Y-88730500D01*
X187759905Y-88730499D01*
X187906830Y-88701275D01*
X188045232Y-88643947D01*
X188169791Y-88560719D01*
X188275719Y-88454791D01*
X188358947Y-88330232D01*
X188416275Y-88191830D01*
X188445500Y-88044903D01*
X188445500Y-87895097D01*
X188416275Y-87748170D01*
X188360208Y-87612813D01*
X188358948Y-87609770D01*
X188358943Y-87609761D01*
X188275719Y-87485209D01*
X188275716Y-87485205D01*
X188169794Y-87379283D01*
X188169790Y-87379280D01*
X188045238Y-87296056D01*
X188045229Y-87296051D01*
X187906830Y-87238725D01*
X187906822Y-87238723D01*
X187759907Y-87209500D01*
X187759903Y-87209500D01*
X187610097Y-87209500D01*
X187610092Y-87209500D01*
X187463177Y-87238723D01*
X187463169Y-87238725D01*
X187324770Y-87296051D01*
X187324761Y-87296056D01*
X187200209Y-87379280D01*
X187200205Y-87379283D01*
X187094283Y-87485205D01*
X187094280Y-87485209D01*
X187011056Y-87609761D01*
X187011051Y-87609770D01*
X186953725Y-87748169D01*
X186953723Y-87748177D01*
X186924500Y-87895092D01*
X164326243Y-87895092D01*
X164263945Y-87882700D01*
X164263942Y-87882700D01*
X164106258Y-87882700D01*
X164106255Y-87882700D01*
X163951610Y-87913461D01*
X163951598Y-87913464D01*
X163805927Y-87973802D01*
X163805914Y-87973809D01*
X163674811Y-88061410D01*
X163674807Y-88061413D01*
X163563313Y-88172907D01*
X163563310Y-88172911D01*
X163475709Y-88304014D01*
X163475702Y-88304027D01*
X163415364Y-88449698D01*
X163415361Y-88449710D01*
X163384600Y-88604353D01*
X161741332Y-88604353D01*
X161659892Y-88522913D01*
X161659888Y-88522910D01*
X161528785Y-88435309D01*
X161528772Y-88435302D01*
X161383101Y-88374964D01*
X161383089Y-88374961D01*
X161228445Y-88344200D01*
X161228442Y-88344200D01*
X161070758Y-88344200D01*
X160978613Y-88362528D01*
X160909022Y-88356299D01*
X160853845Y-88313436D01*
X160832806Y-88265103D01*
X160823537Y-88218503D01*
X160812489Y-88191830D01*
X160763197Y-88072827D01*
X160763190Y-88072814D01*
X160675589Y-87941711D01*
X160675586Y-87941707D01*
X160564092Y-87830213D01*
X160564088Y-87830210D01*
X160432985Y-87742609D01*
X160432972Y-87742602D01*
X160287301Y-87682264D01*
X160287289Y-87682261D01*
X160132645Y-87651500D01*
X160132642Y-87651500D01*
X159974958Y-87651500D01*
X159974955Y-87651500D01*
X159820310Y-87682261D01*
X159820298Y-87682264D01*
X159674627Y-87742602D01*
X159674614Y-87742609D01*
X159543511Y-87830210D01*
X159543506Y-87830214D01*
X159499789Y-87873931D01*
X159438466Y-87907415D01*
X159368774Y-87902430D01*
X159312841Y-87860558D01*
X159309007Y-87855140D01*
X159221589Y-87724311D01*
X159221586Y-87724307D01*
X159110092Y-87612813D01*
X159110088Y-87612810D01*
X158978985Y-87525209D01*
X158978972Y-87525202D01*
X158833301Y-87464864D01*
X158833289Y-87464861D01*
X158678645Y-87434100D01*
X158678642Y-87434100D01*
X158520958Y-87434100D01*
X158520955Y-87434100D01*
X158366310Y-87464861D01*
X158366298Y-87464864D01*
X158220627Y-87525202D01*
X158220614Y-87525209D01*
X158089511Y-87612810D01*
X158089507Y-87612813D01*
X157978013Y-87724307D01*
X157978010Y-87724311D01*
X157890409Y-87855414D01*
X157890402Y-87855427D01*
X157830064Y-88001098D01*
X157830061Y-88001110D01*
X157799300Y-88155753D01*
X157100495Y-88155753D01*
X157095589Y-88148411D01*
X157095586Y-88148407D01*
X156984092Y-88036913D01*
X156984088Y-88036910D01*
X156852985Y-87949309D01*
X156852972Y-87949302D01*
X156707301Y-87888964D01*
X156707289Y-87888961D01*
X156552645Y-87858200D01*
X156552642Y-87858200D01*
X156394958Y-87858200D01*
X156394955Y-87858200D01*
X156240310Y-87888961D01*
X156240298Y-87888964D01*
X156094627Y-87949302D01*
X156094614Y-87949309D01*
X155958446Y-88040295D01*
X155957334Y-88038631D01*
X155901476Y-88062349D01*
X155832609Y-88050553D01*
X155814482Y-88038902D01*
X155814354Y-88039095D01*
X155678185Y-87948109D01*
X155678172Y-87948102D01*
X155532501Y-87887764D01*
X155532489Y-87887761D01*
X155377845Y-87857000D01*
X155377842Y-87857000D01*
X155220158Y-87857000D01*
X155220155Y-87857000D01*
X155065505Y-87887761D01*
X155065501Y-87887763D01*
X155006387Y-87912248D01*
X154936917Y-87919715D01*
X154890047Y-87900789D01*
X154843116Y-87869430D01*
X154821084Y-87854709D01*
X154821081Y-87854707D01*
X154821079Y-87854706D01*
X154821076Y-87854704D01*
X154821071Y-87854702D01*
X154675401Y-87794364D01*
X154675389Y-87794361D01*
X154520745Y-87763600D01*
X154520742Y-87763600D01*
X154363058Y-87763600D01*
X154363055Y-87763600D01*
X154208410Y-87794361D01*
X154208398Y-87794364D01*
X154062727Y-87854702D01*
X154062714Y-87854709D01*
X153931611Y-87942310D01*
X153931607Y-87942313D01*
X153820113Y-88053807D01*
X153820110Y-88053811D01*
X153763367Y-88138734D01*
X153709755Y-88183539D01*
X153640430Y-88192246D01*
X153612817Y-88184405D01*
X153579397Y-88170563D01*
X153579393Y-88170562D01*
X153579388Y-88170560D01*
X153424745Y-88139800D01*
X153424742Y-88139800D01*
X153267058Y-88139800D01*
X153267055Y-88139800D01*
X153112410Y-88170561D01*
X153112398Y-88170564D01*
X152966727Y-88230902D01*
X152966714Y-88230909D01*
X152835611Y-88318510D01*
X152835607Y-88318513D01*
X152724113Y-88430007D01*
X152724110Y-88430011D01*
X152636509Y-88561114D01*
X152636502Y-88561127D01*
X152576164Y-88706798D01*
X152576161Y-88706810D01*
X152545400Y-88861453D01*
X128000000Y-88861453D01*
X128000000Y-87895092D01*
X128444500Y-87895092D01*
X128444500Y-88044907D01*
X128473723Y-88191822D01*
X128473725Y-88191830D01*
X128531051Y-88330229D01*
X128531056Y-88330238D01*
X128614280Y-88454790D01*
X128614283Y-88454794D01*
X128720205Y-88560716D01*
X128720209Y-88560719D01*
X128844761Y-88643943D01*
X128844767Y-88643946D01*
X128844768Y-88643947D01*
X128983170Y-88701275D01*
X129130092Y-88730499D01*
X129130096Y-88730500D01*
X129130097Y-88730500D01*
X129279904Y-88730500D01*
X129279905Y-88730499D01*
X129426830Y-88701275D01*
X129565232Y-88643947D01*
X129689791Y-88560719D01*
X129795719Y-88454791D01*
X129878947Y-88330232D01*
X129936275Y-88191830D01*
X129965500Y-88044903D01*
X129965500Y-87895097D01*
X129936275Y-87748170D01*
X129880208Y-87612813D01*
X129878948Y-87609770D01*
X129878943Y-87609761D01*
X129795719Y-87485209D01*
X129795716Y-87485205D01*
X129689794Y-87379283D01*
X129689790Y-87379280D01*
X129565238Y-87296056D01*
X129565229Y-87296051D01*
X129426830Y-87238725D01*
X129426822Y-87238723D01*
X129279907Y-87209500D01*
X129279903Y-87209500D01*
X129130097Y-87209500D01*
X129130092Y-87209500D01*
X128983177Y-87238723D01*
X128983169Y-87238725D01*
X128844770Y-87296051D01*
X128844761Y-87296056D01*
X128720209Y-87379280D01*
X128720205Y-87379283D01*
X128614283Y-87485205D01*
X128614280Y-87485209D01*
X128531056Y-87609761D01*
X128531051Y-87609770D01*
X128473725Y-87748169D01*
X128473723Y-87748177D01*
X128444500Y-87895092D01*
X128000000Y-87895092D01*
X128000000Y-85044853D01*
X152862500Y-85044853D01*
X152862500Y-85202546D01*
X152893261Y-85357189D01*
X152893264Y-85357201D01*
X152953602Y-85502872D01*
X152953609Y-85502885D01*
X153041210Y-85633988D01*
X153041213Y-85633992D01*
X153152707Y-85745486D01*
X153152711Y-85745489D01*
X153283814Y-85833090D01*
X153283827Y-85833097D01*
X153429498Y-85893435D01*
X153429503Y-85893437D01*
X153584153Y-85924199D01*
X153584156Y-85924200D01*
X153584158Y-85924200D01*
X153741844Y-85924200D01*
X153741845Y-85924199D01*
X153896497Y-85893437D01*
X154042179Y-85833094D01*
X154173289Y-85745489D01*
X154284789Y-85633989D01*
X154372394Y-85502879D01*
X154432737Y-85357197D01*
X154463500Y-85202542D01*
X154463500Y-85044858D01*
X154463500Y-85044855D01*
X154463499Y-85044853D01*
X154450760Y-84980811D01*
X154432737Y-84890203D01*
X154425280Y-84872200D01*
X154416935Y-84852053D01*
X155894500Y-84852053D01*
X155894500Y-85009746D01*
X155925261Y-85164389D01*
X155925264Y-85164401D01*
X155985602Y-85310072D01*
X155985609Y-85310085D01*
X156073210Y-85441188D01*
X156073213Y-85441192D01*
X156184707Y-85552686D01*
X156184711Y-85552689D01*
X156315814Y-85640290D01*
X156315827Y-85640297D01*
X156461498Y-85700635D01*
X156461503Y-85700637D01*
X156610196Y-85730214D01*
X156616153Y-85731399D01*
X156616156Y-85731400D01*
X156616158Y-85731400D01*
X156773844Y-85731400D01*
X156773845Y-85731399D01*
X156928497Y-85700637D01*
X157074179Y-85640294D01*
X157205289Y-85552689D01*
X157316789Y-85441189D01*
X157336123Y-85412253D01*
X157808300Y-85412253D01*
X157808300Y-85569946D01*
X157839061Y-85724589D01*
X157839064Y-85724601D01*
X157899402Y-85870272D01*
X157899409Y-85870285D01*
X157987010Y-86001388D01*
X157987013Y-86001392D01*
X158098507Y-86112886D01*
X158098511Y-86112889D01*
X158229614Y-86200490D01*
X158229627Y-86200497D01*
X158375298Y-86260835D01*
X158375303Y-86260837D01*
X158529953Y-86291599D01*
X158529956Y-86291600D01*
X158529958Y-86291600D01*
X158687644Y-86291600D01*
X158687645Y-86291599D01*
X158842297Y-86260837D01*
X158987979Y-86200494D01*
X159100387Y-86125384D01*
X159167064Y-86104507D01*
X159234444Y-86122991D01*
X159272380Y-86159596D01*
X159288010Y-86182989D01*
X159399507Y-86294486D01*
X159399511Y-86294489D01*
X159530614Y-86382090D01*
X159530627Y-86382097D01*
X159676298Y-86442435D01*
X159676303Y-86442437D01*
X159830953Y-86473199D01*
X159830956Y-86473200D01*
X159830958Y-86473200D01*
X159988644Y-86473200D01*
X159988645Y-86473199D01*
X160143297Y-86442437D01*
X160288979Y-86382094D01*
X160420089Y-86294489D01*
X160531589Y-86182989D01*
X160619194Y-86051879D01*
X160679537Y-85906197D01*
X160710300Y-85751542D01*
X160710300Y-85708000D01*
X160729985Y-85640961D01*
X160782789Y-85595206D01*
X160834300Y-85584000D01*
X160904144Y-85584000D01*
X160904145Y-85583999D01*
X161058797Y-85553237D01*
X161204479Y-85492894D01*
X161335589Y-85405289D01*
X161335590Y-85405287D01*
X161337911Y-85403737D01*
X161404588Y-85382859D01*
X161471968Y-85401343D01*
X161508492Y-85440202D01*
X161510421Y-85438914D01*
X161601410Y-85575088D01*
X161601413Y-85575092D01*
X161712907Y-85686586D01*
X161712911Y-85686589D01*
X161844014Y-85774190D01*
X161844027Y-85774197D01*
X161989698Y-85834535D01*
X161989703Y-85834537D01*
X162144353Y-85865299D01*
X162144356Y-85865300D01*
X162144358Y-85865300D01*
X162302044Y-85865300D01*
X162302045Y-85865299D01*
X162456697Y-85834537D01*
X162602379Y-85774194D01*
X162733489Y-85686589D01*
X162844989Y-85575089D01*
X162884569Y-85515853D01*
X162938179Y-85471050D01*
X163007504Y-85462341D01*
X163070532Y-85492496D01*
X163090772Y-85515854D01*
X163112110Y-85547788D01*
X163112113Y-85547792D01*
X163223607Y-85659286D01*
X163223611Y-85659289D01*
X163354714Y-85746890D01*
X163354727Y-85746897D01*
X163500398Y-85807235D01*
X163500403Y-85807237D01*
X163655053Y-85837999D01*
X163655056Y-85838000D01*
X163655058Y-85838000D01*
X163812744Y-85838000D01*
X163812745Y-85837999D01*
X163967397Y-85807237D01*
X164113079Y-85746894D01*
X164244189Y-85659289D01*
X164355689Y-85547789D01*
X164443294Y-85416679D01*
X164503637Y-85270997D01*
X164534400Y-85116342D01*
X164534400Y-85044853D01*
X165531800Y-85044853D01*
X165531800Y-85202546D01*
X165562561Y-85357189D01*
X165562564Y-85357201D01*
X165622902Y-85502872D01*
X165622909Y-85502885D01*
X165710510Y-85633988D01*
X165710513Y-85633992D01*
X165822007Y-85745486D01*
X165822011Y-85745489D01*
X165953114Y-85833090D01*
X165953127Y-85833097D01*
X166098798Y-85893435D01*
X166098803Y-85893437D01*
X166123239Y-85898297D01*
X166153191Y-85904256D01*
X166215102Y-85936641D01*
X166249676Y-85997357D01*
X166253000Y-86025873D01*
X166253000Y-86188246D01*
X166283761Y-86342889D01*
X166283764Y-86342901D01*
X166344102Y-86488572D01*
X166344107Y-86488581D01*
X166431710Y-86619688D01*
X166431713Y-86619692D01*
X166543207Y-86731186D01*
X166543211Y-86731189D01*
X166674314Y-86818790D01*
X166674327Y-86818797D01*
X166819998Y-86879135D01*
X166820003Y-86879137D01*
X166974653Y-86909899D01*
X166974656Y-86909900D01*
X166974658Y-86909900D01*
X167132344Y-86909900D01*
X167132345Y-86909899D01*
X167286997Y-86879137D01*
X167432679Y-86818794D01*
X167563789Y-86731189D01*
X167675289Y-86619689D01*
X167762894Y-86488579D01*
X167823237Y-86342897D01*
X167854000Y-86188242D01*
X167854000Y-86030558D01*
X167854000Y-86030555D01*
X167853999Y-86030553D01*
X167847396Y-85997357D01*
X167823237Y-85875903D01*
X167820910Y-85870285D01*
X167762897Y-85730227D01*
X167762890Y-85730214D01*
X167675289Y-85599111D01*
X167675286Y-85599107D01*
X167563792Y-85487613D01*
X167563788Y-85487610D01*
X167432685Y-85400009D01*
X167432672Y-85400002D01*
X167287001Y-85339664D01*
X167286992Y-85339661D01*
X167232607Y-85328843D01*
X167204476Y-85314127D01*
X167175597Y-85300939D01*
X167173739Y-85298049D01*
X167170696Y-85296457D01*
X167154984Y-85268865D01*
X167137823Y-85242161D01*
X167137162Y-85237566D01*
X167136123Y-85235741D01*
X167132800Y-85207226D01*
X167132800Y-85044855D01*
X167132799Y-85044853D01*
X171019400Y-85044853D01*
X171019400Y-85202546D01*
X171050161Y-85357189D01*
X171050164Y-85357201D01*
X171110502Y-85502872D01*
X171110509Y-85502885D01*
X171198110Y-85633988D01*
X171198113Y-85633992D01*
X171309607Y-85745486D01*
X171309611Y-85745489D01*
X171440714Y-85833090D01*
X171440727Y-85833097D01*
X171586398Y-85893435D01*
X171586403Y-85893437D01*
X171741053Y-85924199D01*
X171741056Y-85924200D01*
X171741058Y-85924200D01*
X171898744Y-85924200D01*
X171898745Y-85924199D01*
X172053397Y-85893437D01*
X172199079Y-85833094D01*
X172330189Y-85745489D01*
X172441689Y-85633989D01*
X172529294Y-85502879D01*
X172589637Y-85357197D01*
X172620400Y-85202542D01*
X172620400Y-85044858D01*
X172620400Y-85044855D01*
X172620399Y-85044853D01*
X172607660Y-84980811D01*
X172589637Y-84890203D01*
X172544698Y-84781709D01*
X172529297Y-84744527D01*
X172529290Y-84744514D01*
X172441689Y-84613411D01*
X172441686Y-84613407D01*
X172330192Y-84501913D01*
X172330188Y-84501910D01*
X172199085Y-84414309D01*
X172199072Y-84414302D01*
X172053401Y-84353964D01*
X172053389Y-84353961D01*
X171898745Y-84323200D01*
X171898742Y-84323200D01*
X171741058Y-84323200D01*
X171741055Y-84323200D01*
X171586410Y-84353961D01*
X171586398Y-84353964D01*
X171440727Y-84414302D01*
X171440714Y-84414309D01*
X171309611Y-84501910D01*
X171309607Y-84501913D01*
X171198113Y-84613407D01*
X171198110Y-84613411D01*
X171110509Y-84744514D01*
X171110502Y-84744527D01*
X171050164Y-84890198D01*
X171050161Y-84890210D01*
X171019400Y-85044853D01*
X167132799Y-85044853D01*
X167120060Y-84980811D01*
X167102037Y-84890203D01*
X167057098Y-84781709D01*
X167041697Y-84744527D01*
X167041690Y-84744514D01*
X166954089Y-84613411D01*
X166954086Y-84613407D01*
X166842592Y-84501913D01*
X166842588Y-84501910D01*
X166711485Y-84414309D01*
X166711472Y-84414302D01*
X166565801Y-84353964D01*
X166565789Y-84353961D01*
X166411145Y-84323200D01*
X166411142Y-84323200D01*
X166253458Y-84323200D01*
X166253455Y-84323200D01*
X166098810Y-84353961D01*
X166098798Y-84353964D01*
X165953127Y-84414302D01*
X165953114Y-84414309D01*
X165822011Y-84501910D01*
X165822007Y-84501913D01*
X165710513Y-84613407D01*
X165710510Y-84613411D01*
X165622909Y-84744514D01*
X165622902Y-84744527D01*
X165562564Y-84890198D01*
X165562561Y-84890210D01*
X165531800Y-85044853D01*
X164534400Y-85044853D01*
X164534400Y-84958658D01*
X164534400Y-84958655D01*
X164534399Y-84958653D01*
X164523322Y-84902964D01*
X164503637Y-84804003D01*
X164480523Y-84748200D01*
X164443297Y-84658327D01*
X164443290Y-84658314D01*
X164355689Y-84527211D01*
X164355686Y-84527207D01*
X164244192Y-84415713D01*
X164244188Y-84415710D01*
X164113085Y-84328109D01*
X164113072Y-84328102D01*
X163967401Y-84267764D01*
X163967389Y-84267761D01*
X163812745Y-84237000D01*
X163812742Y-84237000D01*
X163655058Y-84237000D01*
X163655055Y-84237000D01*
X163500410Y-84267761D01*
X163500398Y-84267764D01*
X163354727Y-84328102D01*
X163354714Y-84328109D01*
X163223611Y-84415710D01*
X163223607Y-84415713D01*
X163112113Y-84527207D01*
X163072531Y-84586446D01*
X163018918Y-84631250D01*
X162949593Y-84639957D01*
X162886566Y-84609802D01*
X162866327Y-84586445D01*
X162844989Y-84554511D01*
X162844986Y-84554507D01*
X162733492Y-84443013D01*
X162733488Y-84443010D01*
X162602385Y-84355409D01*
X162602372Y-84355402D01*
X162456701Y-84295064D01*
X162456689Y-84295061D01*
X162302045Y-84264300D01*
X162302042Y-84264300D01*
X162144358Y-84264300D01*
X162144355Y-84264300D01*
X161989710Y-84295061D01*
X161989698Y-84295064D01*
X161844027Y-84355402D01*
X161844014Y-84355409D01*
X161710588Y-84444562D01*
X161643910Y-84465440D01*
X161576530Y-84446955D01*
X161540015Y-84408091D01*
X161538079Y-84409386D01*
X161447089Y-84273211D01*
X161447086Y-84273207D01*
X161335592Y-84161713D01*
X161335588Y-84161710D01*
X161204485Y-84074109D01*
X161204472Y-84074102D01*
X161058801Y-84013764D01*
X161058789Y-84013761D01*
X160904145Y-83983000D01*
X160904142Y-83983000D01*
X160746458Y-83983000D01*
X160746455Y-83983000D01*
X160591810Y-84013761D01*
X160591798Y-84013764D01*
X160446127Y-84074102D01*
X160446114Y-84074109D01*
X160315011Y-84161710D01*
X160315007Y-84161713D01*
X160203513Y-84273207D01*
X160203510Y-84273211D01*
X160115909Y-84404314D01*
X160115902Y-84404327D01*
X160055564Y-84549998D01*
X160055561Y-84550010D01*
X160024800Y-84704653D01*
X160024800Y-84748200D01*
X160005115Y-84815239D01*
X159952311Y-84860994D01*
X159900800Y-84872200D01*
X159830955Y-84872200D01*
X159676310Y-84902961D01*
X159676298Y-84902964D01*
X159530627Y-84963302D01*
X159530609Y-84963312D01*
X159418211Y-85038414D01*
X159351534Y-85059292D01*
X159284154Y-85040807D01*
X159246218Y-85004202D01*
X159230587Y-84980808D01*
X159119092Y-84869313D01*
X159119088Y-84869310D01*
X158987985Y-84781709D01*
X158987972Y-84781702D01*
X158842301Y-84721364D01*
X158842289Y-84721361D01*
X158687645Y-84690600D01*
X158687642Y-84690600D01*
X158529958Y-84690600D01*
X158529955Y-84690600D01*
X158375310Y-84721361D01*
X158375298Y-84721364D01*
X158229627Y-84781702D01*
X158229614Y-84781709D01*
X158098511Y-84869310D01*
X158098507Y-84869313D01*
X157987013Y-84980807D01*
X157987010Y-84980811D01*
X157899409Y-85111914D01*
X157899402Y-85111927D01*
X157839064Y-85257598D01*
X157839061Y-85257610D01*
X157808300Y-85412253D01*
X157336123Y-85412253D01*
X157355764Y-85382859D01*
X157386223Y-85337275D01*
X157386224Y-85337273D01*
X157404387Y-85310090D01*
X157404390Y-85310085D01*
X157404394Y-85310079D01*
X157411142Y-85293789D01*
X157418067Y-85277066D01*
X157464737Y-85164397D01*
X157495500Y-85009742D01*
X157495500Y-84852058D01*
X157495500Y-84852055D01*
X157495499Y-84852053D01*
X157488176Y-84815239D01*
X157464737Y-84697403D01*
X157459857Y-84685621D01*
X157404397Y-84551727D01*
X157404390Y-84551714D01*
X157316789Y-84420611D01*
X157316786Y-84420607D01*
X157205292Y-84309113D01*
X157205288Y-84309110D01*
X157074185Y-84221509D01*
X157074172Y-84221502D01*
X156928501Y-84161164D01*
X156928489Y-84161161D01*
X156773845Y-84130400D01*
X156773842Y-84130400D01*
X156616158Y-84130400D01*
X156616155Y-84130400D01*
X156461510Y-84161161D01*
X156461498Y-84161164D01*
X156315827Y-84221502D01*
X156315814Y-84221509D01*
X156184711Y-84309110D01*
X156184707Y-84309113D01*
X156073213Y-84420607D01*
X156073210Y-84420611D01*
X155985609Y-84551714D01*
X155985602Y-84551727D01*
X155925264Y-84697398D01*
X155925261Y-84697410D01*
X155894500Y-84852053D01*
X154416935Y-84852053D01*
X154372397Y-84744527D01*
X154372390Y-84744514D01*
X154284789Y-84613411D01*
X154284786Y-84613407D01*
X154173292Y-84501913D01*
X154173288Y-84501910D01*
X154042185Y-84414309D01*
X154042172Y-84414302D01*
X153896501Y-84353964D01*
X153896489Y-84353961D01*
X153741845Y-84323200D01*
X153741842Y-84323200D01*
X153584158Y-84323200D01*
X153584155Y-84323200D01*
X153429510Y-84353961D01*
X153429498Y-84353964D01*
X153283827Y-84414302D01*
X153283814Y-84414309D01*
X153152711Y-84501910D01*
X153152707Y-84501913D01*
X153041213Y-84613407D01*
X153041210Y-84613411D01*
X152953609Y-84744514D01*
X152953602Y-84744527D01*
X152893264Y-84890198D01*
X152893261Y-84890210D01*
X152862500Y-85044853D01*
X128000000Y-85044853D01*
X128000000Y-83124000D01*
X128019685Y-83056961D01*
X128072489Y-83011206D01*
X128124000Y-83000000D01*
X188876000Y-83000000D01*
X188943039Y-83019685D01*
G37*
%TD.AperFunction*%
%TD*%
M02*
