%TF.GenerationSoftware,KiCad,Pcbnew,9.0.6*%
%TF.CreationDate,2026-01-21T19:17:09+09:00*%
%TF.ProjectId,mictorHSMC,6d696374-6f72-4485-934d-432e6b696361,rev?*%
%TF.SameCoordinates,Original*%
%TF.FileFunction,Soldermask,Bot*%
%TF.FilePolarity,Negative*%
%FSLAX46Y46*%
G04 Gerber Fmt 4.6, Leading zero omitted, Abs format (unit mm)*
G04 Created by KiCad (PCBNEW 9.0.6) date 2026-01-21 19:17:09*
%MOMM*%
%LPD*%
G01*
G04 APERTURE LIST*
G04 Aperture macros list*
%AMRoundRect*
0 Rectangle with rounded corners*
0 $1 Rounding radius*
0 $2 $3 $4 $5 $6 $7 $8 $9 X,Y pos of 4 corners*
0 Add a 4 corners polygon primitive as box body*
4,1,4,$2,$3,$4,$5,$6,$7,$8,$9,$2,$3,0*
0 Add four circle primitives for the rounded corners*
1,1,$1+$1,$2,$3*
1,1,$1+$1,$4,$5*
1,1,$1+$1,$6,$7*
1,1,$1+$1,$8,$9*
0 Add four rect primitives between the rounded corners*
20,1,$1+$1,$2,$3,$4,$5,0*
20,1,$1+$1,$4,$5,$6,$7,0*
20,1,$1+$1,$6,$7,$8,$9,0*
20,1,$1+$1,$8,$9,$2,$3,0*%
G04 Aperture macros list end*
%ADD10RoundRect,0.102000X0.150000X0.725000X-0.150000X0.725000X-0.150000X-0.725000X0.150000X-0.725000X0*%
%ADD11C,1.020000*%
%ADD12RoundRect,0.102000X2.350000X0.320000X-2.350000X0.320000X-2.350000X-0.320000X2.350000X-0.320000X0*%
%ADD13RoundRect,0.102000X1.270000X0.320000X-1.270000X0.320000X-1.270000X-0.320000X1.270000X-0.320000X0*%
%ADD14C,2.390000*%
%ADD15C,1.522000*%
G04 APERTURE END LIST*
D10*
%TO.C,J2*%
X185695000Y-86910000D03*
X185695000Y-93090000D03*
X185195000Y-86910000D03*
X185195000Y-93090000D03*
X184195000Y-86910000D03*
X184195000Y-93090000D03*
X183695000Y-86910000D03*
X183695000Y-93090000D03*
X182695000Y-86910000D03*
X182695000Y-93090000D03*
X182195000Y-86910000D03*
X182195000Y-93090000D03*
X181195000Y-86910000D03*
X181195000Y-93090000D03*
X180695000Y-86910000D03*
X180695000Y-93090000D03*
X179695000Y-86910000D03*
X179695000Y-93090000D03*
X179195000Y-86910000D03*
X179195000Y-93090000D03*
X178195000Y-86910000D03*
X178195000Y-93090000D03*
X177695000Y-86910000D03*
X177695000Y-93090000D03*
X176695000Y-86910000D03*
X176695000Y-93090000D03*
X176195000Y-86910000D03*
X176195000Y-93090000D03*
X175195000Y-86910000D03*
X175195000Y-93090000D03*
X174695000Y-86910000D03*
X174695000Y-93090000D03*
X173695000Y-86910000D03*
X173695000Y-93090000D03*
X173195000Y-86910000D03*
X173195000Y-93090000D03*
X172195000Y-86910000D03*
X172195000Y-93090000D03*
X171695000Y-86910000D03*
X171695000Y-93090000D03*
X165695000Y-86910000D03*
X165695000Y-93090000D03*
X165195000Y-86910000D03*
X165195000Y-93090000D03*
X164695000Y-86910000D03*
X164695000Y-93090000D03*
X164195000Y-86910000D03*
X164195000Y-93090000D03*
X163695000Y-86910000D03*
X163695000Y-93090000D03*
X163195000Y-86910000D03*
X163195000Y-93090000D03*
X162695000Y-86910000D03*
X162695000Y-93090000D03*
X162195000Y-86910000D03*
X162195000Y-93090000D03*
X161695000Y-86910000D03*
X161695000Y-93090000D03*
X161195000Y-86910000D03*
X161195000Y-93090000D03*
X160695000Y-86910000D03*
X160695000Y-93090000D03*
X160195000Y-86910000D03*
X160195000Y-93090000D03*
X159695000Y-86910000D03*
X159695000Y-93090000D03*
X159195000Y-86910000D03*
X159195000Y-93090000D03*
X158695000Y-86910000D03*
X158695000Y-93090000D03*
X158195000Y-86910000D03*
X158195000Y-93090000D03*
X157695000Y-86910000D03*
X157695000Y-93090000D03*
X157195000Y-86910000D03*
X157195000Y-93090000D03*
X156695000Y-86910000D03*
X156695000Y-93090000D03*
X156195000Y-86910000D03*
X156195000Y-93090000D03*
X155695000Y-86910000D03*
X155695000Y-93090000D03*
X155195000Y-86910000D03*
X155195000Y-93090000D03*
X154695000Y-86910000D03*
X154695000Y-93090000D03*
X154195000Y-86910000D03*
X154195000Y-93090000D03*
X153695000Y-86910000D03*
X153695000Y-93090000D03*
X153195000Y-86910000D03*
X153195000Y-93090000D03*
X152695000Y-86910000D03*
X152695000Y-93090000D03*
X152195000Y-86910000D03*
X152195000Y-93090000D03*
X151695000Y-86910000D03*
X151695000Y-93090000D03*
X151195000Y-86910000D03*
X151195000Y-93090000D03*
X145695000Y-86910000D03*
X145695000Y-93090000D03*
X145195000Y-86910000D03*
X145195000Y-93090000D03*
X144695000Y-86910000D03*
X144695000Y-93090000D03*
X144195000Y-86910000D03*
X144195000Y-93090000D03*
X143695000Y-86910000D03*
X143695000Y-93090000D03*
X143195000Y-86910000D03*
X143195000Y-93090000D03*
X142695000Y-86910000D03*
X142695000Y-93090000D03*
X142195000Y-86910000D03*
X142195000Y-93090000D03*
X141695000Y-86910000D03*
X141695000Y-93090000D03*
X141195000Y-86910000D03*
X141195000Y-93090000D03*
X140695000Y-86910000D03*
X140695000Y-93090000D03*
X140195000Y-86910000D03*
X140195000Y-93090000D03*
X139695000Y-86910000D03*
X139695000Y-93090000D03*
X139195000Y-86910000D03*
X139195000Y-93090000D03*
X138695000Y-86910000D03*
X138695000Y-93090000D03*
X138195000Y-86910000D03*
X138195000Y-93090000D03*
X137695000Y-86910000D03*
X137695000Y-93090000D03*
X137195000Y-86910000D03*
X137195000Y-93090000D03*
X136695000Y-86910000D03*
X136695000Y-93090000D03*
X136195000Y-86910000D03*
X136195000Y-93090000D03*
X135695000Y-86910000D03*
X135695000Y-93090000D03*
X135195000Y-86910000D03*
X135195000Y-93090000D03*
X134695000Y-86910000D03*
X134695000Y-93090000D03*
X134195000Y-86910000D03*
X134195000Y-93090000D03*
X133695000Y-86910000D03*
X133695000Y-93090000D03*
X133195000Y-86910000D03*
X133195000Y-93090000D03*
X132695000Y-86910000D03*
X132695000Y-93090000D03*
X132195000Y-86910000D03*
X132195000Y-93090000D03*
X131695000Y-86910000D03*
X131695000Y-93090000D03*
X131195000Y-86910000D03*
X131195000Y-93090000D03*
D11*
X187685000Y-87970000D03*
X129205000Y-87970000D03*
D12*
X161620000Y-90000000D03*
X155270000Y-90000000D03*
D13*
X166890000Y-90000000D03*
X170000000Y-90000000D03*
X150000000Y-90000000D03*
D12*
X175270000Y-90000000D03*
X181620000Y-90000000D03*
D13*
X186890000Y-90000000D03*
X146890000Y-90000000D03*
D12*
X141620000Y-90000000D03*
X135270000Y-90000000D03*
D13*
X130000000Y-90000000D03*
%TD*%
D14*
%TO.C,J1*%
X171510000Y-110000000D03*
D15*
X165160000Y-110000000D03*
X162620000Y-110000000D03*
X160080000Y-110000000D03*
X157540000Y-110000000D03*
X155000000Y-110000000D03*
%TD*%
M02*
