M48
; DRILL file {KiCad 9.0.6} date 2026-01-21T19:18:09+0900
; FORMAT={-:-/ absolute / metric / decimal}
; #@! TF.CreationDate,2026-01-21T19:18:09+09:00
; #@! TF.GenerationSoftware,Kicad,Pcbnew,9.0.6
; #@! TF.FileFunction,Plated,1,4,PTH
FMAT,2
METRIC
; #@! TA.AperFunction,Plated,PTH,ViaDrill
T1C0.300
; #@! TA.AperFunction,Plated,PTH,ComponentDrill
T2C0.810
%
G90
G05
T1
X151.325Y-115.358
X152.107Y-106.416
X153.346Y-88.94
X153.663Y-85.124
X153.78Y-115.563
X153.794Y-102.123
X154.442Y-88.564
X154.916Y-111.96
X154.928Y-108.659
X154.985Y-103.436
X155.184Y-114.776
X155.299Y-88.657
X156.236Y-114.915
X156.474Y-88.659
X156.695Y-84.931
X156.89Y-104.459
X157.001Y-115.757
X157.207Y-103.393
X157.328Y-101.602
X157.716Y-108.713
X158.6Y-88.235
X158.609Y-85.491
X159.001Y-89.103
X159.239Y-111.656
X159.396Y-114.862
X159.492Y-101.51
X159.83Y-108.161
X159.91Y-85.673
X159.969Y-104.614
X160.054Y-88.452
X160.59Y-115.516
X160.717Y-99.168
X160.825Y-84.783
X160.934Y-112.36
X161.15Y-89.145
X161.208Y-108.316
X161.301Y-103.436
X161.509Y-111.685
X161.547Y-114.693
X162.223Y-85.065
X162.627Y-108.624
X162.822Y-102.83
X163.112Y-104.015
X163.13Y-115.553
X163.734Y-85.037
X163.872Y-112.158
X163.89Y-110.307
X164.185Y-88.683
X164.205Y-107.971
X164.62Y-115.506
X164.645Y-103.436
X165.11Y-104.331
X166.332Y-85.124
X166.452Y-112.054
X167.053Y-86.109
X168.66Y-105.808
X168.892Y-112.378
X171.82Y-85.124
T2
X155.0Y-110.0
X157.54Y-110.0
X160.08Y-110.0
X162.62Y-110.0
X165.16Y-110.0
M30
