%TF.GenerationSoftware,KiCad,Pcbnew,9.0.6*%
%TF.CreationDate,2026-01-21T19:17:09+09:00*%
%TF.ProjectId,mictorHSMC,6d696374-6f72-4485-934d-432e6b696361,rev?*%
%TF.SameCoordinates,Original*%
%TF.FileFunction,Paste,Bot*%
%TF.FilePolarity,Positive*%
%FSLAX46Y46*%
G04 Gerber Fmt 4.6, Leading zero omitted, Abs format (unit mm)*
G04 Created by KiCad (PCBNEW 9.0.6) date 2026-01-21 19:17:09*
%MOMM*%
%LPD*%
G01*
G04 APERTURE LIST*
%ADD10R,0.300000X1.450000*%
%ADD11R,4.700000X0.640000*%
%ADD12R,2.540000X0.640000*%
G04 APERTURE END LIST*
D10*
%TO.C,J2*%
X185695000Y-86910000D03*
X185695000Y-93090000D03*
X185195000Y-86910000D03*
X185195000Y-93090000D03*
X184195000Y-86910000D03*
X184195000Y-93090000D03*
X183695000Y-86910000D03*
X183695000Y-93090000D03*
X182695000Y-86910000D03*
X182695000Y-93090000D03*
X182195000Y-86910000D03*
X182195000Y-93090000D03*
X181195000Y-86910000D03*
X181195000Y-93090000D03*
X180695000Y-86910000D03*
X180695000Y-93090000D03*
X179695000Y-86910000D03*
X179695000Y-93090000D03*
X179195000Y-86910000D03*
X179195000Y-93090000D03*
X178195000Y-86910000D03*
X178195000Y-93090000D03*
X177695000Y-86910000D03*
X177695000Y-93090000D03*
X176695000Y-86910000D03*
X176695000Y-93090000D03*
X176195000Y-86910000D03*
X176195000Y-93090000D03*
X175195000Y-86910000D03*
X175195000Y-93090000D03*
X174695000Y-86910000D03*
X174695000Y-93090000D03*
X173695000Y-86910000D03*
X173695000Y-93090000D03*
X173195000Y-86910000D03*
X173195000Y-93090000D03*
X172195000Y-86910000D03*
X172195000Y-93090000D03*
X171695000Y-86910000D03*
X171695000Y-93090000D03*
X165695000Y-86910000D03*
X165695000Y-93090000D03*
X165195000Y-86910000D03*
X165195000Y-93090000D03*
X164695000Y-86910000D03*
X164695000Y-93090000D03*
X164195000Y-86910000D03*
X164195000Y-93090000D03*
X163695000Y-86910000D03*
X163695000Y-93090000D03*
X163195000Y-86910000D03*
X163195000Y-93090000D03*
X162695000Y-86910000D03*
X162695000Y-93090000D03*
X162195000Y-86910000D03*
X162195000Y-93090000D03*
X161695000Y-86910000D03*
X161695000Y-93090000D03*
X161195000Y-86910000D03*
X161195000Y-93090000D03*
X160695000Y-86910000D03*
X160695000Y-93090000D03*
X160195000Y-86910000D03*
X160195000Y-93090000D03*
X159695000Y-86910000D03*
X159695000Y-93090000D03*
X159195000Y-86910000D03*
X159195000Y-93090000D03*
X158695000Y-86910000D03*
X158695000Y-93090000D03*
X158195000Y-86910000D03*
X158195000Y-93090000D03*
X157695000Y-86910000D03*
X157695000Y-93090000D03*
X157195000Y-86910000D03*
X157195000Y-93090000D03*
X156695000Y-86910000D03*
X156695000Y-93090000D03*
X156195000Y-86910000D03*
X156195000Y-93090000D03*
X155695000Y-86910000D03*
X155695000Y-93090000D03*
X155195000Y-86910000D03*
X155195000Y-93090000D03*
X154695000Y-86910000D03*
X154695000Y-93090000D03*
X154195000Y-86910000D03*
X154195000Y-93090000D03*
X153695000Y-86910000D03*
X153695000Y-93090000D03*
X153195000Y-86910000D03*
X153195000Y-93090000D03*
X152695000Y-86910000D03*
X152695000Y-93090000D03*
X152195000Y-86910000D03*
X152195000Y-93090000D03*
X151695000Y-86910000D03*
X151695000Y-93090000D03*
X151195000Y-86910000D03*
X151195000Y-93090000D03*
X145695000Y-86910000D03*
X145695000Y-93090000D03*
X145195000Y-86910000D03*
X145195000Y-93090000D03*
X144695000Y-86910000D03*
X144695000Y-93090000D03*
X144195000Y-86910000D03*
X144195000Y-93090000D03*
X143695000Y-86910000D03*
X143695000Y-93090000D03*
X143195000Y-86910000D03*
X143195000Y-93090000D03*
X142695000Y-86910000D03*
X142695000Y-93090000D03*
X142195000Y-86910000D03*
X142195000Y-93090000D03*
X141695000Y-86910000D03*
X141695000Y-93090000D03*
X141195000Y-86910000D03*
X141195000Y-93090000D03*
X140695000Y-86910000D03*
X140695000Y-93090000D03*
X140195000Y-86910000D03*
X140195000Y-93090000D03*
X139695000Y-86910000D03*
X139695000Y-93090000D03*
X139195000Y-86910000D03*
X139195000Y-93090000D03*
X138695000Y-86910000D03*
X138695000Y-93090000D03*
X138195000Y-86910000D03*
X138195000Y-93090000D03*
X137695000Y-86910000D03*
X137695000Y-93090000D03*
X137195000Y-86910000D03*
X137195000Y-93090000D03*
X136695000Y-86910000D03*
X136695000Y-93090000D03*
X136195000Y-86910000D03*
X136195000Y-93090000D03*
X135695000Y-86910000D03*
X135695000Y-93090000D03*
X135195000Y-86910000D03*
X135195000Y-93090000D03*
X134695000Y-86910000D03*
X134695000Y-93090000D03*
X134195000Y-86910000D03*
X134195000Y-93090000D03*
X133695000Y-86910000D03*
X133695000Y-93090000D03*
X133195000Y-86910000D03*
X133195000Y-93090000D03*
X132695000Y-86910000D03*
X132695000Y-93090000D03*
X132195000Y-86910000D03*
X132195000Y-93090000D03*
X131695000Y-86910000D03*
X131695000Y-93090000D03*
X131195000Y-86910000D03*
X131195000Y-93090000D03*
D11*
X161620000Y-90000000D03*
X155270000Y-90000000D03*
D12*
X166890000Y-90000000D03*
X170000000Y-90000000D03*
X150000000Y-90000000D03*
D11*
X175270000Y-90000000D03*
X181620000Y-90000000D03*
D12*
X186890000Y-90000000D03*
X146890000Y-90000000D03*
D11*
X141620000Y-90000000D03*
X135270000Y-90000000D03*
D12*
X130000000Y-90000000D03*
%TD*%
M02*
