%TF.GenerationSoftware,KiCad,Pcbnew,9.0.6*%
%TF.CreationDate,2026-01-21T19:17:09+09:00*%
%TF.ProjectId,mictorHSMC,6d696374-6f72-4485-934d-432e6b696361,rev?*%
%TF.SameCoordinates,Original*%
%TF.FileFunction,Copper,L2,Inr*%
%TF.FilePolarity,Positive*%
%FSLAX46Y46*%
G04 Gerber Fmt 4.6, Leading zero omitted, Abs format (unit mm)*
G04 Created by KiCad (PCBNEW 9.0.6) date 2026-01-21 19:17:09*
%MOMM*%
%LPD*%
G01*
G04 APERTURE LIST*
%TA.AperFunction,ComponentPad*%
%ADD10C,1.318000*%
%TD*%
%TA.AperFunction,ViaPad*%
%ADD11C,0.600000*%
%TD*%
%TA.AperFunction,Conductor*%
%ADD12C,0.200000*%
%TD*%
G04 APERTURE END LIST*
D10*
%TO.N,GND*%
%TO.C,J1*%
X165160000Y-110000000D03*
X162620000Y-110000000D03*
X160080000Y-110000000D03*
X157540000Y-110000000D03*
X155000000Y-110000000D03*
%TD*%
D11*
%TO.N,HSM_D29*%
X154928200Y-108659400D03*
%TO.N,HSM_D6*%
X163889700Y-110307000D03*
X163733900Y-85037500D03*
%TO.N,HSM_D1*%
X165110100Y-104330800D03*
%TO.N,HSM_D9*%
X162821800Y-102830400D03*
%TO.N,HSM_D2*%
X164620200Y-115506500D03*
X167053500Y-86109400D03*
%TO.N,HSM_D18*%
X158608800Y-85491100D03*
X159395800Y-114861900D03*
%TO.N,HSM_D30*%
X155184300Y-114776100D03*
X154441900Y-88564100D03*
%TO.N,HSM_D25*%
X157207400Y-103392800D03*
%TO.N,HSM_D28*%
X155299000Y-88657500D03*
X154915900Y-111960200D03*
%TO.N,HSM_D33*%
X153793800Y-102123100D03*
%TO.N,HSM_D24*%
X156695000Y-84930900D03*
X157000800Y-115756700D03*
%TO.N,HSM_D31*%
X154984600Y-103435700D03*
%TO.N,HSM_D19*%
X159830200Y-108161200D03*
%TO.N,HSM_D10*%
X161149600Y-89144700D03*
X161208400Y-108315900D03*
X161508600Y-111684700D03*
%TO.N,HSM_D11*%
X162627500Y-108623700D03*
%TO.N,HSM_D15*%
X160717300Y-99167600D03*
%TO.N,HSM_D21*%
X159492200Y-101509600D03*
%TO.N,HSM_D5*%
X164205100Y-107970700D03*
%TO.N,HSM_D34*%
X153780200Y-115563100D03*
X153345900Y-88940300D03*
%TO.N,HSM_D14*%
X160053800Y-88452000D03*
X160933800Y-112359700D03*
%TO.N,HSM_D3*%
X164645300Y-103435700D03*
%TO.N,HSM_D13*%
X161300600Y-103435600D03*
%TO.N,HSM_D35*%
X152107300Y-106416200D03*
%TO.N,HSM_D26*%
X156473800Y-88658700D03*
X156236400Y-114915200D03*
%TO.N,HSM_CLKIN0*%
X168660200Y-105808100D03*
%TO.N,HSM_D32*%
X151325300Y-115357700D03*
X153663000Y-85123700D03*
%TO.N,HSM_D22*%
X160589700Y-115516000D03*
X159001500Y-89103200D03*
%TO.N,HSM_D7*%
X163111700Y-104015300D03*
%TO.N,HSM_CLKOUT0*%
X171819900Y-85123700D03*
X168892100Y-112378500D03*
%TO.N,HSM_D0*%
X166451700Y-112054400D03*
X166332300Y-85123700D03*
%TO.N,HSM_D20*%
X157716200Y-108712900D03*
X158599800Y-88234600D03*
%TO.N,HSM_D17*%
X159969500Y-104614500D03*
%TO.N,HSM_D27*%
X156889800Y-104459200D03*
%TO.N,HSM_D23*%
X157327600Y-101601600D03*
%TO.N,HSM_D4*%
X164185100Y-88683200D03*
X163872100Y-112157800D03*
%TO.N,HSM_D12*%
X161547400Y-114692900D03*
X160825300Y-84783500D03*
%TO.N,HSM_D16*%
X159238700Y-111655700D03*
X159909800Y-85672700D03*
%TO.N,HSM_D8*%
X162223200Y-85064800D03*
X163130000Y-115552700D03*
%TD*%
D12*
%TO.N,HSM_D6*%
X163603400Y-110020700D02*
X163889700Y-110307000D01*
X163603400Y-104374500D02*
X163603400Y-110020700D01*
X163769700Y-104208200D02*
X163603400Y-104374500D01*
X163769700Y-89118600D02*
X163769700Y-104208200D01*
X161523500Y-86872400D02*
X163769700Y-89118600D01*
X161523500Y-84861200D02*
X161523500Y-86872400D01*
X161921700Y-84463000D02*
X161523500Y-84861200D01*
X163159400Y-84463000D02*
X161921700Y-84463000D01*
X163733900Y-85037500D02*
X163159400Y-84463000D01*
%TO.N,HSM_D2*%
X167053500Y-102218700D02*
X167053500Y-86109400D01*
X167136000Y-102301200D02*
X167053500Y-102218700D01*
X167136000Y-102301200D02*
X167053500Y-102218700D01*
X167372900Y-102538100D02*
X167136000Y-102301200D01*
X167372900Y-112753800D02*
X167372900Y-102538100D01*
X164620200Y-115506500D02*
X167372900Y-112753800D01*
%TO.N,HSM_D18*%
X156542500Y-112008600D02*
X159395800Y-114861900D01*
X156542500Y-104997900D02*
X156542500Y-112008600D01*
X156270500Y-104725900D02*
X156542500Y-104997900D01*
X156270500Y-104227700D02*
X156270500Y-104725900D01*
X156542500Y-103955700D02*
X156270500Y-104227700D01*
X156542500Y-101535900D02*
X156542500Y-103955700D01*
X157998000Y-100080400D02*
X156542500Y-101535900D01*
X157998000Y-86101900D02*
X157998000Y-100080400D01*
X158608800Y-85491100D02*
X157998000Y-86101900D01*
%TO.N,HSM_D30*%
X153446800Y-111327200D02*
X153473500Y-111353900D01*
X153446800Y-111327200D02*
X153473500Y-111353900D01*
X154441900Y-88695200D02*
X154441900Y-88564100D01*
X153192100Y-89945000D02*
X154441900Y-88695200D01*
X153192100Y-111072500D02*
X153192100Y-89945000D01*
X153446800Y-111327200D02*
X153192100Y-111072500D01*
X153473500Y-113065300D02*
X153473500Y-111353900D01*
X155184300Y-114776100D02*
X153473500Y-113065300D01*
%TO.N,HSM_D28*%
X155950200Y-88006300D02*
X155299000Y-88657500D01*
X156694300Y-88006300D02*
X155950200Y-88006300D01*
X157080500Y-88392500D02*
X156694300Y-88006300D01*
X157080500Y-97791000D02*
X157080500Y-88392500D01*
X155699000Y-99172500D02*
X157080500Y-97791000D01*
X155699000Y-101636900D02*
X155699000Y-99172500D01*
X154016300Y-103319600D02*
X155699000Y-101636900D01*
X154016300Y-110422700D02*
X154016300Y-103319600D01*
X154915900Y-111322300D02*
X154016300Y-110422700D01*
X154915900Y-111960200D02*
X154915900Y-111322300D01*
%TO.N,HSM_D24*%
X157000800Y-113363300D02*
X157000800Y-115756700D01*
X156127100Y-112489600D02*
X157000800Y-113363300D01*
X156127100Y-105150500D02*
X156127100Y-112489600D01*
X155868800Y-104892200D02*
X156127100Y-105150500D01*
X155868800Y-104061400D02*
X155868800Y-104892200D01*
X156127100Y-103803100D02*
X155868800Y-104061400D01*
X156127100Y-99312500D02*
X156127100Y-103803100D01*
X157488500Y-97951100D02*
X156127100Y-99312500D01*
X157488500Y-85724400D02*
X157488500Y-97951100D01*
X156695000Y-84930900D02*
X157488500Y-85724400D01*
%TO.N,HSM_D10*%
X161319000Y-89314100D02*
X161149600Y-89144700D01*
X161319000Y-100182200D02*
X161319000Y-89314100D01*
X160688900Y-100812300D02*
X161319000Y-100182200D01*
X160688900Y-103685600D02*
X160688900Y-100812300D01*
X161208400Y-104205100D02*
X160688900Y-103685600D01*
X161208400Y-108315900D02*
X161208400Y-104205100D01*
%TO.N,HSM_D34*%
X152754500Y-114537400D02*
X153780200Y-115563100D01*
X152754500Y-89531700D02*
X152754500Y-114537400D01*
X153345900Y-88940300D02*
X152754500Y-89531700D01*
%TO.N,HSM_D14*%
X160472600Y-104237500D02*
X160637400Y-104402300D01*
X160472600Y-104237500D02*
X160637400Y-104402300D01*
X160837800Y-112263700D02*
X160933800Y-112359700D01*
X160837800Y-111174700D02*
X160837800Y-112263700D01*
X161050800Y-110961700D02*
X160837800Y-111174700D01*
X161050800Y-109009100D02*
X161050800Y-110961700D01*
X160606600Y-108564900D02*
X161050800Y-109009100D01*
X160606600Y-104433100D02*
X160606600Y-108564900D01*
X160637400Y-104402300D02*
X160606600Y-104433100D01*
X160053100Y-88452700D02*
X160053800Y-88452000D01*
X160237200Y-104002100D02*
X160472600Y-104237500D01*
X160237200Y-100812000D02*
X160237200Y-104002100D01*
X160053100Y-100627900D02*
X160237200Y-100812000D01*
X160053100Y-88452700D02*
X160053100Y-100627900D01*
%TO.N,HSM_D26*%
X154014800Y-112693600D02*
X156236400Y-114915200D01*
X154014800Y-111327200D02*
X154014800Y-112693600D01*
X153848500Y-111160900D02*
X154014800Y-111327200D01*
X153848500Y-111160900D02*
X154014800Y-111327200D01*
X154395600Y-90736900D02*
X156473800Y-88658700D01*
X154395600Y-102372300D02*
X154395600Y-90736900D01*
X154043100Y-102724800D02*
X154395600Y-102372300D01*
X154041700Y-102724800D02*
X154043100Y-102724800D01*
X153613100Y-103153400D02*
X154041700Y-102724800D01*
X153613100Y-110925500D02*
X153613100Y-103153400D01*
X153848500Y-111160900D02*
X153613100Y-110925500D01*
%TO.N,HSM_D32*%
X151325300Y-87461400D02*
X153663000Y-85123700D01*
X151325300Y-115357700D02*
X151325300Y-87461400D01*
%TO.N,HSM_D22*%
X158817400Y-89103200D02*
X159001500Y-89103200D01*
X159001500Y-89103200D02*
X158817400Y-89103200D01*
X158817400Y-89103200D02*
X159001500Y-89103200D01*
X160589700Y-115204900D02*
X160589700Y-115516000D01*
X158637000Y-113252200D02*
X160589700Y-115204900D01*
X158637000Y-108782500D02*
X158637000Y-113252200D01*
X158488800Y-108634300D02*
X158637000Y-108782500D01*
X158488800Y-101092600D02*
X158488800Y-108634300D01*
X158801400Y-100780000D02*
X158488800Y-101092600D01*
X158801400Y-89119200D02*
X158801400Y-100780000D01*
X158817400Y-89103200D02*
X158801400Y-89119200D01*
%TO.N,HSM_CLKOUT0*%
X169261900Y-87681700D02*
X171819900Y-85123700D01*
X169261900Y-112008700D02*
X169261900Y-87681700D01*
X168892100Y-112378500D02*
X169261900Y-112008700D01*
%TO.N,HSM_D0*%
X166332300Y-86239000D02*
X166332300Y-85123700D01*
X166568000Y-86474700D02*
X166332300Y-86239000D01*
X166568000Y-90595300D02*
X166568000Y-86474700D01*
X166581600Y-90608900D02*
X166568000Y-90595300D01*
X166581600Y-102314800D02*
X166581600Y-90608900D01*
X166734300Y-102467500D02*
X166581600Y-102314800D01*
X166734300Y-102467500D02*
X166581600Y-102314800D01*
X166969700Y-102702900D02*
X166734300Y-102467500D01*
X166969700Y-111536400D02*
X166969700Y-102702900D01*
X166451700Y-112054400D02*
X166969700Y-111536400D01*
%TO.N,HSM_D20*%
X158599800Y-88234600D02*
X158564300Y-88234600D01*
X158564300Y-88234600D02*
X158599800Y-88234600D01*
X157929300Y-108499800D02*
X157716200Y-108712900D01*
X157929300Y-101084100D02*
X157929300Y-108499800D01*
X158399700Y-100613700D02*
X157929300Y-101084100D01*
X158399700Y-88399200D02*
X158399700Y-100613700D01*
X158564300Y-88234600D02*
X158399700Y-88399200D01*
%TO.N,HSM_D4*%
X165711800Y-90209900D02*
X164185100Y-88683200D01*
X165711800Y-105686900D02*
X165711800Y-90209900D01*
X166143500Y-106118600D02*
X165711800Y-105686900D01*
X166143500Y-110377900D02*
X166143500Y-106118600D01*
X164363600Y-112157800D02*
X166143500Y-110377900D01*
X163872100Y-112157800D02*
X164363600Y-112157800D01*
%TO.N,HSM_D12*%
X162165100Y-114075200D02*
X161547400Y-114692900D01*
X162165100Y-111490300D02*
X162165100Y-114075200D01*
X161636400Y-110961600D02*
X162165100Y-111490300D01*
X161636400Y-108738800D02*
X161636400Y-110961600D01*
X161936200Y-108439000D02*
X161636400Y-108738800D01*
X161936200Y-88381700D02*
X161936200Y-108439000D01*
X160825300Y-87270800D02*
X161936200Y-88381700D01*
X160825300Y-84783500D02*
X160825300Y-87270800D01*
%TO.N,HSM_D16*%
X159053800Y-111470800D02*
X159238700Y-111655700D01*
X159053800Y-105636100D02*
X159053800Y-111470800D01*
X158890500Y-105472800D02*
X159053800Y-105636100D01*
X158890500Y-101258900D02*
X158890500Y-105472800D01*
X159604700Y-100544700D02*
X158890500Y-101258900D01*
X159604700Y-88854000D02*
X159604700Y-100544700D01*
X159419300Y-88668600D02*
X159604700Y-88854000D01*
X159419300Y-86163200D02*
X159419300Y-88668600D01*
X159909800Y-85672700D02*
X159419300Y-86163200D01*
%TO.N,HSM_D8*%
X166166300Y-89007900D02*
X162223200Y-85064800D01*
X166166300Y-102467500D02*
X166166300Y-89007900D01*
X166179900Y-102481100D02*
X166166300Y-102467500D01*
X166332600Y-102633800D02*
X166179900Y-102481100D01*
X166332600Y-102633800D02*
X166179900Y-102481100D01*
X166568000Y-102869200D02*
X166332600Y-102633800D01*
X166568000Y-110526200D02*
X166568000Y-102869200D01*
X163130000Y-113964200D02*
X166568000Y-110526200D01*
X163130000Y-115552700D02*
X163130000Y-113964200D01*
%TD*%
M02*
