%TF.GenerationSoftware,KiCad,Pcbnew,9.0.6*%
%TF.CreationDate,2026-01-21T19:17:09+09:00*%
%TF.ProjectId,mictorHSMC,6d696374-6f72-4485-934d-432e6b696361,rev?*%
%TF.SameCoordinates,Original*%
%TF.FileFunction,Copper,L1,Top*%
%TF.FilePolarity,Positive*%
%FSLAX46Y46*%
G04 Gerber Fmt 4.6, Leading zero omitted, Abs format (unit mm)*
G04 Created by KiCad (PCBNEW 9.0.6) date 2026-01-21 19:17:09*
%MOMM*%
%LPD*%
G01*
G04 APERTURE LIST*
%TA.AperFunction,NonConductor*%
%ADD10C,0.200000*%
%TD*%
%TA.AperFunction,SMDPad,CuDef*%
%ADD11R,0.430000X1.270000*%
%TD*%
%TA.AperFunction,ComponentPad*%
%ADD12C,1.318000*%
%TD*%
%TA.AperFunction,ViaPad*%
%ADD13C,0.600000*%
%TD*%
%TA.AperFunction,Conductor*%
%ADD14C,0.200000*%
%TD*%
G04 APERTURE END LIST*
D10*
X127000000Y-82360000D02*
X190215000Y-82360000D01*
X190215000Y-117570000D01*
X127000000Y-117570000D01*
X127000000Y-82360000D01*
D11*
%TO.P,J1,1,1*%
%TO.N,HSM_CLKOUT0*%
X165795000Y-113530000D03*
%TO.P,J1,2,2*%
%TO.N,HSM_CLKIN0*%
X165795000Y-106470000D03*
%TO.P,J1,3,3*%
%TO.N,HSM_D0*%
X165160000Y-113530000D03*
%TO.P,J1,4,4*%
%TO.N,HSM_D1*%
X165160000Y-106470000D03*
%TO.P,J1,5,5*%
%TO.N,HSM_D2*%
X164525000Y-113530000D03*
%TO.P,J1,6,6*%
%TO.N,HSM_D3*%
X164525000Y-106470000D03*
%TO.P,J1,7,7*%
%TO.N,HSM_D4*%
X163890000Y-113530000D03*
%TO.P,J1,8,8*%
%TO.N,HSM_D5*%
X163890000Y-106470000D03*
%TO.P,J1,9,9*%
%TO.N,HSM_D6*%
X163255000Y-113530000D03*
%TO.P,J1,10,10*%
%TO.N,HSM_D7*%
X163255000Y-106470000D03*
%TO.P,J1,11,11*%
%TO.N,HSM_D8*%
X162620000Y-113530000D03*
%TO.P,J1,12,12*%
%TO.N,HSM_D9*%
X162620000Y-106470000D03*
%TO.P,J1,13,13*%
%TO.N,HSM_D10*%
X161985000Y-113530000D03*
%TO.P,J1,14,14*%
%TO.N,HSM_D11*%
X161985000Y-106470000D03*
%TO.P,J1,15,15*%
%TO.N,HSM_D12*%
X161350000Y-113530000D03*
%TO.P,J1,16,16*%
%TO.N,HSM_D13*%
X161350000Y-106470000D03*
%TO.P,J1,17,17*%
%TO.N,HSM_D14*%
X160715000Y-113530000D03*
%TO.P,J1,18,18*%
%TO.N,HSM_D15*%
X160715000Y-106470000D03*
%TO.P,J1,19,19*%
%TO.N,HSM_D16*%
X160080000Y-113530000D03*
%TO.P,J1,20,20*%
%TO.N,HSM_D17*%
X160080000Y-106470000D03*
%TO.P,J1,21,21*%
%TO.N,HSM_D18*%
X159445000Y-113530000D03*
%TO.P,J1,22,22*%
%TO.N,HSM_D19*%
X159445000Y-106470000D03*
%TO.P,J1,23,23*%
%TO.N,HSM_D20*%
X158810000Y-113530000D03*
%TO.P,J1,24,24*%
%TO.N,HSM_D21*%
X158810000Y-106470000D03*
%TO.P,J1,25,25*%
%TO.N,HSM_D22*%
X158175000Y-113530000D03*
%TO.P,J1,26,26*%
%TO.N,HSM_D23*%
X158175000Y-106470000D03*
%TO.P,J1,27,27*%
%TO.N,HSM_D24*%
X157540000Y-113530000D03*
%TO.P,J1,28,28*%
%TO.N,HSM_D25*%
X157540000Y-106470000D03*
%TO.P,J1,29,29*%
%TO.N,HSM_D26*%
X156905000Y-113530000D03*
%TO.P,J1,30,30*%
%TO.N,HSM_D27*%
X156905000Y-106470000D03*
%TO.P,J1,31,31*%
%TO.N,HSM_D28*%
X156270000Y-113530000D03*
%TO.P,J1,32,32*%
%TO.N,HSM_D29*%
X156270000Y-106470000D03*
%TO.P,J1,33,33*%
%TO.N,HSM_D30*%
X155635000Y-113530000D03*
%TO.P,J1,34,34*%
%TO.N,HSM_D31*%
X155635000Y-106470000D03*
%TO.P,J1,35,35*%
%TO.N,HSM_D32*%
X155000000Y-113530000D03*
%TO.P,J1,36,36*%
%TO.N,HSM_D33*%
X155000000Y-106470000D03*
%TO.P,J1,37,37*%
%TO.N,HSM_D34*%
X154365000Y-113530000D03*
%TO.P,J1,38,38*%
%TO.N,HSM_D35*%
X154365000Y-106470000D03*
D12*
%TO.P,J1,S1,SHIELD*%
%TO.N,GND*%
X165160000Y-110000000D03*
%TO.P,J1,S2,SHIELD*%
X162620000Y-110000000D03*
%TO.P,J1,S3,SHIELD*%
X160080000Y-110000000D03*
%TO.P,J1,S4,SHIELD*%
X157540000Y-110000000D03*
%TO.P,J1,S5,SHIELD*%
X155000000Y-110000000D03*
%TD*%
D13*
%TO.N,HSM_D29*%
X154928200Y-108659400D03*
%TO.N,HSM_D6*%
X163889700Y-110307000D03*
X163733900Y-85037500D03*
%TO.N,HSM_D1*%
X165110100Y-104330800D03*
%TO.N,HSM_D9*%
X162821800Y-102830400D03*
%TO.N,HSM_D2*%
X164620200Y-115506500D03*
X167053500Y-86109400D03*
%TO.N,HSM_D18*%
X158608800Y-85491100D03*
X159395800Y-114861900D03*
%TO.N,HSM_D30*%
X155184300Y-114776100D03*
X154441900Y-88564100D03*
%TO.N,HSM_D25*%
X157207400Y-103392800D03*
%TO.N,HSM_D28*%
X155299000Y-88657500D03*
X154915900Y-111960200D03*
%TO.N,HSM_D33*%
X153793800Y-102123100D03*
%TO.N,HSM_D24*%
X156695000Y-84930900D03*
X157000800Y-115756700D03*
%TO.N,HSM_D31*%
X154984600Y-103435700D03*
%TO.N,HSM_D19*%
X159830200Y-108161200D03*
%TO.N,HSM_D10*%
X161149600Y-89144700D03*
X161208400Y-108315900D03*
X161508600Y-111684700D03*
%TO.N,HSM_D11*%
X162627500Y-108623700D03*
%TO.N,HSM_D15*%
X160717300Y-99167600D03*
%TO.N,HSM_D21*%
X159492200Y-101509600D03*
%TO.N,HSM_D5*%
X164205100Y-107970700D03*
%TO.N,HSM_D34*%
X153780200Y-115563100D03*
X153345900Y-88940300D03*
%TO.N,HSM_D14*%
X160053800Y-88452000D03*
X160933800Y-112359700D03*
%TO.N,HSM_D3*%
X164645300Y-103435700D03*
%TO.N,HSM_D13*%
X161300600Y-103435600D03*
%TO.N,HSM_D35*%
X152107300Y-106416200D03*
%TO.N,HSM_D26*%
X156473800Y-88658700D03*
X156236400Y-114915200D03*
%TO.N,HSM_CLKIN0*%
X168660200Y-105808100D03*
%TO.N,HSM_D32*%
X151325300Y-115357700D03*
X153663000Y-85123700D03*
%TO.N,HSM_D22*%
X160589700Y-115516000D03*
X159001500Y-89103200D03*
%TO.N,HSM_D7*%
X163111700Y-104015300D03*
%TO.N,HSM_CLKOUT0*%
X171819900Y-85123700D03*
X168892100Y-112378500D03*
%TO.N,HSM_D0*%
X166451700Y-112054400D03*
X166332300Y-85123700D03*
%TO.N,HSM_D20*%
X157716200Y-108712900D03*
X158599800Y-88234600D03*
%TO.N,HSM_D17*%
X159969500Y-104614500D03*
%TO.N,HSM_D27*%
X156889800Y-104459200D03*
%TO.N,HSM_D23*%
X157327600Y-101601600D03*
%TO.N,HSM_D4*%
X164185100Y-88683200D03*
X163872100Y-112157800D03*
%TO.N,HSM_D12*%
X161547400Y-114692900D03*
X160825300Y-84783500D03*
%TO.N,HSM_D16*%
X159238700Y-111655700D03*
X159909800Y-85672700D03*
%TO.N,HSM_D8*%
X162223200Y-85064800D03*
X163130000Y-115552700D03*
%TD*%
D14*
%TO.N,HSM_D29*%
X156180900Y-107406700D02*
X156270000Y-107406700D01*
X154928200Y-108659400D02*
X156180900Y-107406700D01*
X156270000Y-106470000D02*
X156270000Y-107406700D01*
%TO.N,HSM_D6*%
X163255000Y-110941700D02*
X163889700Y-110307000D01*
X163255000Y-113530000D02*
X163255000Y-110941700D01*
%TO.N,HSM_D1*%
X165110100Y-105483400D02*
X165160000Y-105533300D01*
X165110100Y-104330800D02*
X165110100Y-105483400D01*
X165160000Y-106470000D02*
X165160000Y-105533300D01*
%TO.N,HSM_D9*%
X162486900Y-103165300D02*
X162821800Y-102830400D01*
X162486900Y-105400200D02*
X162486900Y-103165300D01*
X162620000Y-105533300D02*
X162486900Y-105400200D01*
X162620000Y-106470000D02*
X162620000Y-105533300D01*
%TO.N,HSM_D2*%
X164525000Y-115411300D02*
X164525000Y-113530000D01*
X164620200Y-115506500D02*
X164525000Y-115411300D01*
%TO.N,HSM_D18*%
X159445000Y-114812700D02*
X159445000Y-113530000D01*
X159395800Y-114861900D02*
X159445000Y-114812700D01*
%TO.N,HSM_D30*%
X155493700Y-114466700D02*
X155184300Y-114776100D01*
X155635000Y-114466700D02*
X155493700Y-114466700D01*
X155635000Y-113530000D02*
X155635000Y-114466700D01*
%TO.N,HSM_D25*%
X157540000Y-106470000D02*
X157540000Y-105533300D01*
X157540000Y-103725400D02*
X157540000Y-105533300D01*
X157207400Y-103392800D02*
X157540000Y-103725400D01*
%TO.N,HSM_D28*%
X155636900Y-111960200D02*
X154915900Y-111960200D01*
X156270000Y-112593300D02*
X155636900Y-111960200D01*
X156270000Y-113530000D02*
X156270000Y-112593300D01*
%TO.N,HSM_D33*%
X155000000Y-106470000D02*
X155000000Y-105533300D01*
X153793800Y-104327100D02*
X153793800Y-102123100D01*
X155000000Y-105533300D02*
X153793800Y-104327100D01*
%TO.N,HSM_D24*%
X157540000Y-115217500D02*
X157540000Y-113530000D01*
X157000800Y-115756700D02*
X157540000Y-115217500D01*
%TO.N,HSM_D31*%
X155635000Y-104086100D02*
X155635000Y-106470000D01*
X154984600Y-103435700D02*
X155635000Y-104086100D01*
%TO.N,HSM_D19*%
X159445000Y-107776000D02*
X159830200Y-108161200D01*
X159445000Y-106470000D02*
X159445000Y-107776000D01*
%TO.N,HSM_D10*%
X161985000Y-112161100D02*
X161508600Y-111684700D01*
X161985000Y-113530000D02*
X161985000Y-112161100D01*
%TO.N,HSM_D11*%
X161985000Y-107981200D02*
X161985000Y-106470000D01*
X162627500Y-108623700D02*
X161985000Y-107981200D01*
%TO.N,HSM_D15*%
X160698800Y-99186100D02*
X160717300Y-99167600D01*
X160698800Y-105517100D02*
X160698800Y-99186100D01*
X160715000Y-105533300D02*
X160698800Y-105517100D01*
X160715000Y-106470000D02*
X160715000Y-105533300D01*
X160717300Y-99167600D02*
X160698800Y-99186100D01*
X160698800Y-99186100D02*
X160717300Y-99167600D01*
%TO.N,HSM_D21*%
X158810000Y-102191800D02*
X159492200Y-101509600D01*
X158810000Y-106470000D02*
X158810000Y-102191800D01*
%TO.N,HSM_D5*%
X163890000Y-107655600D02*
X163890000Y-106470000D01*
X164205100Y-107970700D02*
X163890000Y-107655600D01*
%TO.N,HSM_D34*%
X154365000Y-114978300D02*
X154365000Y-113530000D01*
X153780200Y-115563100D02*
X154365000Y-114978300D01*
%TO.N,HSM_D14*%
X160715000Y-112578500D02*
X160715000Y-113530000D01*
X160933800Y-112359700D02*
X160715000Y-112578500D01*
%TO.N,HSM_D3*%
X164508400Y-105516700D02*
X164525000Y-105533300D01*
X164508400Y-103572600D02*
X164508400Y-105516700D01*
X164645300Y-103435700D02*
X164508400Y-103572600D01*
X164525000Y-106470000D02*
X164525000Y-105533300D01*
%TO.N,HSM_D13*%
X161350000Y-103485000D02*
X161300600Y-103435600D01*
X161350000Y-106470000D02*
X161350000Y-103485000D01*
%TO.N,HSM_D35*%
X154365000Y-106470000D02*
X154365000Y-105533300D01*
X152990200Y-105533300D02*
X154365000Y-105533300D01*
X152107300Y-106416200D02*
X152990200Y-105533300D01*
%TO.N,HSM_D26*%
X156684900Y-114466700D02*
X156905000Y-114466700D01*
X156236400Y-114915200D02*
X156684900Y-114466700D01*
X156905000Y-113530000D02*
X156905000Y-114466700D01*
%TO.N,HSM_CLKIN0*%
X168385400Y-105533300D02*
X165795000Y-105533300D01*
X168660200Y-105808100D02*
X168385400Y-105533300D01*
X165795000Y-106470000D02*
X165795000Y-105533300D01*
%TO.N,HSM_D32*%
X151325300Y-115250000D02*
X151325300Y-115357700D01*
X153982000Y-112593300D02*
X151325300Y-115250000D01*
X155000000Y-112593300D02*
X153982000Y-112593300D01*
X155000000Y-113530000D02*
X155000000Y-112593300D01*
%TO.N,HSM_D22*%
X158175000Y-113530000D02*
X158175000Y-114466700D01*
X159199100Y-115516000D02*
X160589700Y-115516000D01*
X158175000Y-114491900D02*
X159199100Y-115516000D01*
X158175000Y-114466700D02*
X158175000Y-114491900D01*
%TO.N,HSM_D7*%
X163255000Y-104158600D02*
X163255000Y-106470000D01*
X163111700Y-104015300D02*
X163255000Y-104158600D01*
%TO.N,GND*%
X162620000Y-110000000D02*
X160080000Y-110000000D01*
%TO.N,HSM_CLKOUT0*%
X167740600Y-113530000D02*
X168892100Y-112378500D01*
X165795000Y-113530000D02*
X167740600Y-113530000D01*
%TO.N,HSM_D0*%
X165160000Y-113530000D02*
X165160000Y-112593300D01*
X165912800Y-112593300D02*
X165160000Y-112593300D01*
X166451700Y-112054400D02*
X165912800Y-112593300D01*
%TO.N,HSM_D20*%
X158810000Y-112097600D02*
X158810000Y-113530000D01*
X158637000Y-111924600D02*
X158810000Y-112097600D01*
X158637000Y-109633700D02*
X158637000Y-111924600D01*
X157716200Y-108712900D02*
X158637000Y-109633700D01*
%TO.N,HSM_D17*%
X160080000Y-104725000D02*
X160080000Y-106470000D01*
X159969500Y-104614500D02*
X160080000Y-104725000D01*
%TO.N,HSM_D27*%
X156905000Y-104474400D02*
X156905000Y-106470000D01*
X156889800Y-104459200D02*
X156905000Y-104474400D01*
%TO.N,HSM_D23*%
X158175000Y-102449000D02*
X157327600Y-101601600D01*
X158175000Y-106470000D02*
X158175000Y-102449000D01*
%TO.N,HSM_D4*%
X163890000Y-112175700D02*
X163890000Y-113530000D01*
X163872100Y-112157800D02*
X163890000Y-112175700D01*
%TO.N,HSM_D12*%
X161350000Y-114495500D02*
X161350000Y-113530000D01*
X161547400Y-114692900D02*
X161350000Y-114495500D01*
%TO.N,HSM_D16*%
X160080000Y-113530000D02*
X160080000Y-112593300D01*
X159238700Y-111752000D02*
X160080000Y-112593300D01*
X159238700Y-111655700D02*
X159238700Y-111752000D01*
%TO.N,HSM_D8*%
X162620000Y-115042700D02*
X163130000Y-115552700D01*
X162620000Y-113530000D02*
X162620000Y-115042700D01*
%TD*%
M02*
